<?xml version="1.0" encoding="utf-8"?>
<!-- Generator: Adobe Illustrator 18.0.0, SVG Export Plug-In . SVG Version: 6.00 Build 0)  -->
<!DOCTYPE svg PUBLIC "-//W3C//DTD SVG 1.1 Tiny//EN" "http://www.w3.org/Graphics/SVG/1.1/DTD/svg11-tiny.dtd">
<svg version="1.1" baseProfile="tiny" id="Layer_1" xmlns="http://www.w3.org/2000/svg" xmlns:xlink="http://www.w3.org/1999/xlink"
	 x="0px" y="0px" viewBox="0 0 64 64" xml:space="preserve">
<g>
	<g>
		<g>
			<path fill="#BE1E2D" d="M0.4,3.5v56.9c0,1.7,1.4,3.2,3.2,3.2h56.9c1.7,0,3.2-1.4,3.2-3.2V3.5c0-1.7-1.4-3.2-3.2-3.2H3.6
				C1.9,0.3,0.4,1.7,0.4,3.5z M58.4,61.4H5.7c-1.7,0-3.2-1.4-3.2-3.2V14c0-1.7,1.4-3.2,3.2-3.2h52.7c1.7,0,3.2,1.4,3.2,3.2v44.3
				C61.6,60,60.2,61.4,58.4,61.4z M58.4,8.8H5.7C4,8.8,2.6,7.3,2.6,5.6l0,0c0-1.7,1.4-3.2,3.2-3.2h52.7c1.7,0,3.2,1.4,3.2,3.2l0,0
				C61.6,7.3,60.2,8.8,58.4,8.8z"/>
			<rect x="4.7" y="4.5" fill="#BE1E2D" width="2.1" height="2.1"/>
			<rect x="8.9" y="4.5" fill="#BE1E2D" width="2.1" height="2.1"/>
			<rect x="13.1" y="4.5" fill="#BE1E2D" width="2.1" height="2.1"/>
			<rect x="57.4" y="4.5" fill="#BE1E2D" width="2.1" height="2.1"/>
			<path fill="#BE1E2D" d="M28.9,15.1h-19c-1.7,0-3.2,1.4-3.2,3.2v35.8c0,1.7,1.4,3.2,3.2,3.2h19c1.7,0,3.2-1.4,3.2-3.2V18.2
				C32.1,16.5,30.6,15.1,28.9,15.1z M26.8,55.1H12c-1.7,0-3.2-1.4-3.2-3.2V20.3c0-1.7,1.4-3.2,3.2-3.2h14.8c1.7,0,3.2,1.4,3.2,3.2
				V52C30,53.7,28.5,55.1,26.8,55.1z"/>
			<path fill="#BE1E2D" d="M54.2,15.1H39.4c-1.7,0-3.2,1.4-3.2,3.2V31c0,1.7,1.4,3.2,3.2,3.2h14.8c1.7,0,3.2-1.4,3.2-3.2V18.2
				C57.4,16.5,55.9,15.1,54.2,15.1z M52.1,31.9H41.5c-1.7,0-3.2-1.4-3.2-3.2v-8.4c0-1.7,1.4-3.2,3.2-3.2h10.6c1.7,0,3.2,1.4,3.2,3.2
				v8.4C55.2,30.5,53.8,31.9,52.1,31.9z"/>
			<path fill="#BE1E2D" d="M54.2,38.3H39.4c-1.7,0-3.2,1.4-3.2,3.2v12.7c0,1.7,1.4,3.2,3.2,3.2h14.8c1.7,0,3.2-1.4,3.2-3.2V41.4
				C57.4,39.7,55.9,38.3,54.2,38.3z M52.1,55.1H41.5c-1.7,0-3.2-1.4-3.2-3.2v-8.4c0-1.7,1.4-3.2,3.2-3.2h10.6c1.7,0,3.2,1.4,3.2,3.2
				V52C55.2,53.7,53.8,55.1,52.1,55.1z"/>
		</g>
	</g>
</g>
</svg>
