<?xml version="1.0" encoding="utf-8"?>
<!-- Generator: Adobe Illustrator 18.0.0, SVG Export Plug-In . SVG Version: 6.00 Build 0)  -->
<!DOCTYPE svg PUBLIC "-//W3C//DTD SVG 1.1//EN" "http://www.w3.org/Graphics/SVG/1.1/DTD/svg11.dtd">
<svg version="1.1" id="Layer_1" xmlns="http://www.w3.org/2000/svg" xmlns:xlink="http://www.w3.org/1999/xlink" x="0px" y="0px"
	 viewBox="39.5 12.2 61.5 39.5" enable-background="new 39.5 12.2 61.5 39.5" xml:space="preserve">
<g>
	<g>
		<path fill="#BE1E2D" d="M100.1,34.8c-2.5-6.3-9.4-9.5-15.7-7.4l-4.7-10.9h8.1c0.7,0,1.4,0.4,1.5,1.2c0.3,1-0.5,1.9-1.5,1.9h-2.9
			c-0.4,0-0.7,0.3-0.7,0.7V21c0,0.4,0.3,0.7,0.7,0.7h2.8c1.7,0,3.3-1.2,3.6-2.8c0.4-2.3-1.3-4.3-3.5-4.3h-9.7c-0.6,0-1,0.4-1,1
			c0,0.1,0,0.3,0.1,0.4l1.6,3.6h-7.1c-0.4,0-0.7,0.3-0.7,0.7V21c0,0.4,0.3,0.7,0.7,0.7h6.7l-9.2,15l-6.7-15.2h1.8
			c0.4,0,0.7-0.3,0.7-0.7v-0.7c0-0.4-0.3-0.7-0.7-0.7h-2.7l-2.2-5.1h2.9c0.4,0,0.7-0.3,0.7-0.7v-0.7c0-0.4-0.3-0.7-0.7-0.7h-6.7
			c-0.4,0-0.8,0.4-0.8,0.8v0.5c0,0.4,0.3,0.7,0.7,0.7h1.7l2.6,6l-3.9,7c-6.3-2.3-13.4,1-15.7,7.3c-2.3,6.3,1,13.4,7.3,15.7
			c1.3,0.5,2.8,0.8,4.2,0.8c6.3,0,11.6-4.9,12.2-11.2H69c0.3,0,0.6-0.2,0.8-0.4l0,0l10.3-16.9l2.4,5.6c-6.1,3.3-8.4,10.9-5.2,17
			c3.5,6.5,11.8,8.7,18,4.5C100.2,46.5,102.3,40.2,100.1,34.8z M50.2,49.1c-5.3-0.7-9.2-5.6-8.8-10.9c0.4-5.4,4.9-9.5,10.2-9.5
			c1.1,0,2.2,0.2,3.2,0.5l-5.1,9.2c-0.3,0.5-0.1,1.1,0.4,1.4c0.1,0.1,0.3,0.1,0.5,0.1h11.2C61.2,45.7,55.9,49.9,50.2,49.1z M52.3,38
			l4.4-7.9c2.9,1.7,4.7,4.5,5.1,7.8L52.3,38L52.3,38z M63.8,38c-0.3-4-2.6-7.6-6.1-9.6l3.1-5.5L67.4,38H63.8L63.8,38z M91.2,48.8
			c-5.1,1.5-10.5-1.2-12.4-6.1C77,37.9,79,32.5,83.4,30l3.8,8.7c0.1,0.3,0.6,0.5,0.9,0.3l0.6-0.3c0.3-0.1,0.5-0.6,0.3-0.9l-3.8-8.7
			c5.4-1.7,11.1,1.2,12.9,6.6C99.9,41.3,96.8,47.2,91.2,48.8z"/>
	</g>
</g>
</svg>
