<?xml version="1.0" encoding="utf-8"?>
<!-- Generator: Adobe Illustrator 18.0.0, SVG Export Plug-In . SVG Version: 6.00 Build 0)  -->
<!DOCTYPE svg PUBLIC "-//W3C//DTD SVG 1.1 Tiny//EN" "http://www.w3.org/Graphics/SVG/1.1/DTD/svg11-tiny.dtd">
<svg version="1.1" baseProfile="tiny" id="Layer_1" xmlns="http://www.w3.org/2000/svg" xmlns:xlink="http://www.w3.org/1999/xlink"
	 x="0px" y="0px" viewBox="0 0 64 64" xml:space="preserve">
<path fill="#9E1F63" d="M59,4.5c-3.8-3.8-10-3.8-13.8,0L6,43.7c0,0,0,0.1-0.1,0.1l-0.1,0.1c-0.1,0.1-0.1,0.1-0.1,0.2v0.1l0,0
	L1.9,60.3c0,0.1,0,0.1,0,0.2c0,0,0,0,0,0.1c0,0.1,0,0.2,0.1,0.4V61c0.1,0.1,0.1,0.2,0.2,0.3s0.2,0.1,0.4,0.2
	c0.1,0.1,0.3,0.1,0.4,0.1c0.1,0,0.1,0,0.2,0l16.1-3.9h0.1c0,0,0.1,0,0.1-0.1c0.1,0,0.1-0.1,0.2-0.1c0,0,0.1,0,0.1-0.1l0,0l39.1-39.1
	C62.8,14.5,62.8,8.3,59,4.5z M57.5,6c2.7,2.7,2.9,6.9,0.7,9.9L47.6,5.3C50.5,3.1,54.8,3.3,57.5,6z M52.1,22.2L41.4,11.4l1.6-1.6
	l10.7,10.7L52.1,22.2z M7.3,56.3c-0.4-0.4-1.1-0.4-1.6,0l-0.8,0.8l2.8-11.7l4.8-0.5l-0.6,5.6c0,0.1,0,0.1,0,0.1s0,0.1,0,0.1v0.1
	c0,0.1,0,0.1,0.1,0.1c0,0.1,0.1,0.1,0.1,0.2c0,0.1,0.1,0.1,0.1,0.1c0.1,0.1,0.1,0.1,0.1,0.1c0.1,0,0.1,0.1,0.1,0.1
	c0.1,0,0.1,0.1,0.2,0.1s0.1,0,0.1,0.1c0.1,0,0.1,0,0.1,0l0,0l0,0l0,0l0,0c0.1,0,0.1,0,0.1,0l5.6-0.6l-0.6,4.7L6.5,58.6l0.8-0.8
	C7.7,57.4,7.7,56.6,7.3,56.3z M20.9,50.3L45.2,26c0.4-0.4,0.4-1.1,0-1.6s-1.1-0.4-1.6,0L19.3,48.7l-5.2,0.6l0.6-5.2l24.3-24.3
	c0.4-0.4,0.4-1.1,0-1.6s-1.1-0.4-1.6,0L13.2,42.6L9.8,43l30.1-30.1l10.7,10.7L20.5,53.7L20.9,50.3z M55.2,19.1L44.4,8.3L46,6.8
	l10.7,10.7L55.2,19.1z"/>
</svg>
