<?xml version="1.0" encoding="utf-8"?>
<!-- Generator: Adobe Illustrator 18.0.0, SVG Export Plug-In . SVG Version: 6.00 Build 0)  -->
<!DOCTYPE svg PUBLIC "-//W3C//DTD SVG 1.1 Tiny//EN" "http://www.w3.org/Graphics/SVG/1.1/DTD/svg11-tiny.dtd">
<svg version="1.1" baseProfile="tiny" id="Layer_1" xmlns="http://www.w3.org/2000/svg" xmlns:xlink="http://www.w3.org/1999/xlink"
	 x="0px" y="0px" viewBox="0 0 64 64" xml:space="preserve">
<g>
	<g>
		<path fill="#9E1F63" d="M41.1,43.5v-1.1c0.3-0.3,0.6-0.5,0.9-0.8c2.3-2.5,3.8-5.7,4.2-9.2c2.1-0.3,3.9-1.4,5.2-3.1
			c1.7-2.5,1.9-6,0.4-10.5c-0.1-0.3-0.3-0.5-0.5-0.6l-0.7-0.4c0.1-4-1.3-7.9-3.9-11C43.5,3.2,38.6,1.4,32,1.4S20.5,3.3,17.2,6.9
			c-2.6,3.1-4,7-3.9,11l-0.7,0.4c-0.2,0.1-0.4,0.4-0.5,0.6c-1.5,4.5-1.3,8,0.4,10.5c1.3,1.7,3.1,2.8,5.2,3.1
			c0.4,3.4,1.9,6.6,4.2,9.2c0.3,0.3,0.6,0.6,0.9,0.8v1.1c-4.6,0.9-23,5.2-22.7,17.5c0,0.7,0.5,1.2,1.2,1.2h61.1
			c0.7,0,1.2-0.5,1.2-1.2C64.1,48.7,45.7,44.4,41.1,43.5z M17.1,29.8c-1-0.3-1.9-1-2.5-1.9h0.1c-1.2-1.8-1.3-4.4-0.2-7.9l0.9-0.6
			c0.4-0.2,0.6-0.7,0.5-1.1c-0.2-3.6,1-7.1,3.3-9.9c2.7-3.1,7.1-4.6,12.9-4.6s10.2,1.6,13,4.6c2.3,2.8,3.5,6.3,3.3,9.9
			c0,0.4,0.2,0.9,0.5,1.1l0.9,0.6c1.1,3.5,1,6.2-0.2,7.9c-0.6,0.9-1.5,1.5-2.6,1.9c1.4-1.6,2.2-3.8,2-6c-0.2-1.3-0.9-2.5-1.9-3.4
			C46.3,8.4,37.9,7,34.3,7c-0.8,0-1.5,0.1-2.3,0.2C31.2,7.1,30.5,7,29.7,7c-3.6,0-12,1.3-12.6,13.4c-1,0.8-1.7,2-2,3.4
			C15,25.9,15.7,28.1,17.1,29.8z M44.5,19.9c-5,0.3-10.1-1-14.4-3.6C29.6,16,29,16,28.5,16.5c-2.4,2.6-6.8,3.2-8.9,3.3
			c0.6-8.5,5.8-10.3,10.1-10.3c0.7,0,1.4,0.1,2.1,0.2c0.2,0,0.3,0,0.5,0c0.7-0.1,1.4-0.2,2.1-0.2C38.6,9.4,43.8,11.3,44.5,19.9
			L44.5,19.9z M20.1,30L20.1,30c0.1-0.3-0.1-0.6-0.3-0.8c-1.6-1.9-2.4-3.6-2.2-5c0.1-0.8,0.5-1.5,1.1-2c1.6,0,7.2-0.3,10.8-3.4
			c4.1,2.3,8.7,3.6,13.3,3.6c0.8,0,1.6,0,2.5-0.1c0.6,0.5,1,1.2,1.1,2c0.2,1.4-0.6,3.1-2.2,5c-0.2,0.2-0.3,0.5-0.3,0.8
			c0,0,0,0.2,0,0.6l-7,3.7c-1.4-1.3-3.6-1.3-4.9,0.1c-1.3,1.4-1.3,3.6,0.1,4.9c1.4,1.3,3.6,1.3,4.9-0.1c0.6-0.6,0.9-1.5,0.9-2.4
			c0-0.1,0-0.2,0-0.3l5.5-3C43,36,41.9,38.2,40.3,40c-2.1,2.1-5,3.1-8,3h-0.6c-2.9,0.1-5.8-0.9-8-3C20,36.2,20.1,30.1,20.1,30z
			 M35.6,36.9c0,0.6-0.5,1.1-1.1,1.1s-1.1-0.5-1.1-1.1s0.5-1.1,1.1-1.1S35.6,36.3,35.6,36.9z M30.8,59.7H2.7
			c0.9-9,15.6-12.8,20.2-13.8v2.2c0,2.7,3.3,4.8,7.9,5.2C30.8,53.3,30.8,59.7,30.8,59.7z M25.3,48.1L25.3,48.1V44
			c2,0.9,4.2,1.4,6.4,1.3h0.6c2.2,0,4.4-0.4,6.4-1.3v4.1c0,1.1-2.6,2.8-6.7,2.8S25.3,49.2,25.3,48.1z M33.2,59.8v-6.5
			c4.6-0.3,7.9-2.4,7.9-5.2V46c4.6,1,19.2,4.7,20.2,13.8H33.2L33.2,59.8z"/>
	</g>
</g>
</svg>
