<?xml version="1.0" encoding="utf-8"?>
<!-- Generator: Adobe Illustrator 18.0.0, SVG Export Plug-In . SVG Version: 6.00 Build 0)  -->
<!DOCTYPE svg PUBLIC "-//W3C//DTD SVG 1.1//EN" "http://www.w3.org/Graphics/SVG/1.1/DTD/svg11.dtd">
<svg version="1.1" id="Layer_1" xmlns="http://www.w3.org/2000/svg" xmlns:xlink="http://www.w3.org/1999/xlink" x="0px" y="0px"
	 viewBox="4 5.8 55.8 55.5" enable-background="new 4 5.8 55.8 55.5" xml:space="preserve">
<g>
	<g>
		<g>
			<circle fill="#9E1F63" cx="33.2" cy="32.4" r="1.1"/>
		</g>
	</g>
	<g>
		<g>
			<path fill="#9E1F63" d="M47.5,18.5c-0.9-0.9-2-1.3-3.3-1.3c-1.2,0-2.4,0.5-3.3,1.3c-1.8,1.8-1.8,4.7,0,6.6
				c0.9,0.9,2.1,1.3,3.3,1.3s2.4-0.4,3.3-1.3C49.3,23.3,49.3,20.4,47.5,18.5z M45.9,23.6c-1,1-2.5,1-3.5,0s-1-2.5,0-3.5
				c0.4-0.4,1.1-0.7,1.7-0.7c0.6,0,1.3,0.3,1.7,0.7C46.8,21.1,46.8,22.6,45.9,23.6z"/>
		</g>
	</g>
	<g>
		<g>
			<path fill="#9E1F63" d="M59.1,6.5c-0.5-0.5-1.2-0.8-1.9-0.7l-1,0.1C47,6.5,38.5,10.9,32.7,18l-2.4,2.9L24,20.7c0,0,0,0-0.1,0
				c-5,0-9.7,1.9-13.2,5.4l-6.4,6.4C4,32.8,3.9,33.3,4,33.7s0.5,0.7,1,0.7l13.6,0.8L18,35.9c-0.3,0.3-0.3,0.8-0.1,1.2
				c0.2,0.4,0.4,0.8,0.6,1.2l-3.2,3.8c-0.3,0.3-0.3,0.8-0.1,1.2c0.7,1.5,1.7,2.8,2.8,4c1.2,1.2,2.6,2.1,4,2.9
				c0.1,0.1,0.3,0.1,0.4,0.1c0.3,0,0.5-0.1,0.7-0.3c0.7-0.6,1.5-1.2,2.2-1.9c0.6-0.4,1.1-1,1.7-1.3c0.3,0.2,0.6,0.4,1,0.6
				c0.2,0.1,0.3,0.1,0.5,0.1c0.3,0,0.4-0.1,0.6-0.3l0.8-0.6l0.7,13.6c0,0.4,0.3,0.8,0.7,1c0.1,0.1,0.3,0.1,0.4,0.1
				c0.3,0,0.6-0.1,0.8-0.3l6.4-6.4c3.5-3.5,5.4-8.2,5.4-13.2v-6l2.6-2C54.7,27.5,59.3,18.6,59.8,9V8.5C59.8,7.7,59.6,7,59.1,6.5z
				 M7.7,32.4l4.7-4.7c3.1-3.1,7.2-4.8,11.6-4.8l4.6,0.1l-8.1,10L7.7,32.4z M24.2,46.4c-0.6,0.4-1.2,1-1.7,1.4c-1-0.6-2-1.3-2.8-2.1
				s-1.5-1.7-2-2.8l2.4-2.8c0.7,1,1.5,1.9,2.4,2.7l0,0l0,0l0,0c1,1,1.9,1.8,3,2.6C25,45.8,24.6,46.1,24.2,46.4z M42.4,41.3
				c0,4.4-1.7,8.5-4.8,11.6l-4.7,4.7l-0.6-12.7L42.5,37L42.4,41.3L42.4,41.3z M57.6,8.9c-0.4,9-4.7,17.3-11.8,22.8L28.6,45
				c-1.4-0.8-2.8-1.8-4-2.9l5.8-5.8c0.4-0.4,0.4-1.1,0-1.5s-1.1-0.4-1.5,0l-5.8,5.8c-1.1-1.2-2-2.4-2.8-3.8l14.1-17.3
				c5.4-6.7,13.4-10.8,21.9-11.3l1-0.1c0.1,0,0.2,0.1,0.3,0.1s0.1,0.1,0.1,0.3L57.6,8.9z"/>
		</g>
	</g>
</g>
</svg>
