<?xml version="1.0" encoding="utf-8"?>
<!-- Generator: Adobe Illustrator 18.0.0, SVG Export Plug-In . SVG Version: 6.00 Build 0)  -->
<!DOCTYPE svg PUBLIC "-//W3C//DTD SVG 1.1//EN" "http://www.w3.org/Graphics/SVG/1.1/DTD/svg11.dtd">
<svg version="1.1" id="Layer_1" xmlns="http://www.w3.org/2000/svg" xmlns:xlink="http://www.w3.org/1999/xlink" x="0px" y="0px"
	 viewBox="0 0 1350 702" enable-background="new 0 0 1350 702" xml:space="preserve">
<path fill="#00A2FF" d="M1335.7,748.8H1.6c-8.3,0-15.1-6.8-15.1-15.1V3c0-8.3,6.8-15.1,15.1-15.1h1334.1c8.3,0,15.1,6.8,15.1,15.1
	v730.7C1350.8,742,1344.1,748.8,1335.7,748.8z"/>
<path fill="#7C4B39" d="M636.6,156.4"/>
<line fill="#313D6E" x1="481.1" y1="656.3" x2="481.1" y2="662.9"/>
<polygon display="none" opacity="0.55" fill="#C5CBED" points="791.8,281.3 678.8,525.2 554.4,525.2 666.6,281.3 "/>
<g>
	<g>
		<defs>
			<rect id="SVGID_1_" x="-30.6" y="-237.2" width="1468.4" height="943.1"/>
		</defs>
		<clipPath id="SVGID_2_">
			<use xlink:href="#SVGID_1_"  overflow="visible"/>
		</clipPath>
		<path opacity="0.65" clip-path="url(#SVGID_2_)" fill="#7AD8E2" d="M1480.2,129.3c0-68.8-57.3-124.5-128.1-124.5
			c-0.8,0-1.7,0-2.5,0.1c0,0,0,0,0-0.1c0-25.1-20.9-45.4-46.7-45.4c-13.8,0-26.1,5.8-34.7,15.1c-20.4-13.4-45-21.2-71.5-21.2
			c-5.6,0-11.2,0.4-16.6,1.1c-13.5-34.1-47.4-58.2-87.2-58.2c0,0-0.1,0-0.1,0c-15.5-51.8-64.7-89.6-122.9-89.6
			c-63.6,0-116.3,45-126.3,104.1c-0.6,0-1.2,0-1.7,0c-4.6,0-9.1,0.2-13.6,0.7c-16.4-26.2-46-43.6-79.8-43.6
			c-26.1,0-49.7,10.4-66.7,27.2c-17.9-9.2-38.3-14.5-59.9-14.5c-6.5,0-12.8,0.5-19,1.4c-6.2-18-23.7-31-44.3-31
			c-0.8,0-1.5,0.1-2.2,0.1c-16.1-27.2-46.3-45.5-81-45.5c-46.3,0-84.7,32.7-92.1,75.7c-0.4,0-0.9,0-1.3,0c-23.3,0-44.6,8.3-60.9,22
			c-22.9-33.8-62.3-56.2-107-56.2c-67.3,0-122.4,50.4-127.6,114.5c-7.5-1.9-15.4-2.9-23.5-2.9C11.3-41.6-30.6-1-30.6,49.2v653.2
			h1468.4V221.8C1463.8,199,1480.2,166,1480.2,129.3z"/>
		<path opacity="0.2" clip-path="url(#SVGID_2_)" fill="#A9E3F1" d="M1468.1,414c0-35.7-14.9-68-39-91.4c3.5-6.1,5.4-13.1,5.4-20.5
			c0-23.5-19.6-42.5-43.7-42.5c-18.2,0-33.8,10.8-40.4,26.2c-5-0.5-10-0.9-15.1-0.9c-3.3,0-6.6,0.2-9.8,0.4c0.2-2.9,0.4-5.9,0.4-8.9
			c0-71.3-59.5-129.1-132.8-129.1c-18.9,0-36.9,3.9-53.2,10.8c1.9-7.3,3-15,3-22.9c0-50.6-42.2-91.7-94.3-91.7
			c-39.4,0-73.2,23.5-87.3,56.9c-30.3,6.1-56.8,22.2-75.7,44.6c-19.8-11.4-42.8-17.9-67.5-17.9c-28.1,0-54.1,8.5-75.6,22.9
			c-7.7-2-15.7-3-24.1-3c-3.3,0-6.5,0.2-9.8,0.5c0.4-4,0.6-8.1,0.6-12.3C709.1,63.9,649.6,6,576.3,6c-73.4,0-132.8,57.8-132.8,129.1
			c0,0.1,0,0.2,0,0.4c-13.3,1.1-25.8,4.9-36.9,10.8c-24.1-32.6-63.4-53.9-107.9-53.9c-64.3,0-117.9,44.4-130.2,103.3
			c-12.8-6.3-27.2-9.8-42.4-9.8c-49.7,0-90.5,37.4-94,84.9c-2-0.3-4-0.5-6.1-0.5c-24.2,0-43.7,19-43.7,42.5v371h1452.3v-184
			C1455.3,477,1468.1,447,1468.1,414z"/>
	</g>
	<g opacity="0.5">
		<polygon fill="#039CE8" points="698,404.4 722.4,404.4 722.4,374.7 698,374.7 698,363.9 722.4,363.9 722.4,334.2 698,334.2 
			698,317.4 687.8,317.4 687.8,273.4 668,280.3 665.8,248.2 663.5,281.9 641.6,289.6 641.6,317.4 630.4,317.4 630.4,334.2 
			604.5,334.2 604.5,363.9 630.4,363.9 630.4,374.7 604.5,374.7 604.5,404.4 630.4,404.4 630.4,586.9 617.4,586.9 617.4,423.4 
			539.4,500.9 539.4,519.8 524.2,519.8 524.2,396.3 511.8,396.3 511.8,354.4 439.7,354.4 439.7,396.9 422.1,396.9 422.1,519.8 
			399.7,519.8 399.7,299.9 274,349.7 274,478.6 231.7,478.6 231.7,451.6 263.1,451.6 171,388.6 78.8,451.6 110.2,451.6 110.2,534.4 
			78.8,534.4 78.8,451.6 78.8,367 -7.6,367 -7.6,701.8 78.8,701.8 110.2,701.8 110.2,702.6 231.7,702.6 231.7,702.5 710.2,702.5 
			710.2,586.9 698,586.9 		"/>
		<polygon fill="#039CE8" points="1301.6,196.8 1301.6,248.2 1265.3,248.2 1265.3,475.4 1246.3,475.4 1246.3,370.6 1127.3,370.6 
			1127.3,471.1 1107.2,471.1 1107.2,420.6 1064.2,420.6 1064.2,471.1 1039.2,471.1 1039.2,317.4 1024.5,317.4 1024.5,295.7 
			981.7,295.7 981.7,317.4 967.2,317.4 967.2,426 946.3,426 946.3,317.4 931.7,317.4 931.7,295.7 888.9,295.7 888.9,317.4 
			874.3,317.4 874.3,550.1 846,550.1 846,507.9 836,507.9 836,461.8 817,461.8 817,415.7 748,442 748,461.8 729,461.8 729,507.9 
			719,507.9 719,702.6 846,702.6 846,702.5 874.3,702.5 874.3,702.6 946.3,702.6 946.3,441.5 967.2,441.5 967.2,702.6 1039.2,702.6 
			1039.2,667.6 1232.5,667.6 1232.5,702.6 1351.3,702.6 1351.3,196.8 		"/>
	</g>
	<g opacity="0.5">
		<defs>
			<rect id="SVGID_3_" x="-7.6" y="471.1" opacity="0.5" width="1358.9" height="231.5"/>
		</defs>
		<clipPath id="SVGID_4_">
			<use xlink:href="#SVGID_3_"  overflow="visible"/>
		</clipPath>
		<polygon clip-path="url(#SVGID_4_)" fill="#0283C4" points="1539.9,594.7 1539.9,633 1511.3,642.4 1511.3,612.4 1489.4,612.4 
			1489.4,649.6 1454.5,661.1 1454.5,581.8 1430.7,581.8 1430.7,612.4 1411.6,612.4 1411.6,544.2 1397.7,544.2 1397.7,522.1 
			1375.5,522.1 1375.5,511.7 1369,511.7 1369,522.1 1346.8,522.1 1346.8,544.2 1332.6,544.2 1332.6,633.9 1258.6,604.4 
			1181.3,636.9 1181.3,585 1172.8,585 1172.8,568 1135,568 1135,531.8 1126.9,531.8 1126.9,568 1090.7,568 1090.7,585 1083.3,585 
			1083.3,621.3 1026.8,621.3 1026.8,607.6 998.4,607.6 998.4,643.8 972.5,643.8 972.5,621.3 954.3,621.3 954.3,585 889.3,620.6 
			889.3,654.2 873.5,654.2 873.5,585 808.4,620.6 808.4,656 803.8,658.6 803.8,594.7 745.4,594.7 745.4,633 716.8,642.4 
			716.8,612.4 694.9,612.4 694.9,649.6 660,661.1 660,581.8 636.2,581.8 636.2,612.4 617.1,612.4 617.1,544.2 603.2,544.2 
			603.2,522.1 581,522.1 581,511.7 574.5,511.7 574.5,522.1 552.3,522.1 552.3,544.2 538.1,544.2 538.1,633.9 464.1,604.4 
			386.8,636.9 386.8,585 378.3,585 378.3,522.1 340.5,522.1 340.5,485.9 332.4,485.9 332.4,522.1 296.2,522.1 296.2,585 288.8,585 
			288.8,621.3 232.3,621.3 232.3,607.6 203.9,607.6 203.9,643.8 178,643.8 178,621.3 159.8,621.3 159.8,585 94.8,620.6 94.8,654.2 
			79,654.2 79,585 13.9,620.6 13.9,656 -7.6,668.3 -7.6,702.6 13.9,702.6 79,702.6 79,668.3 94.8,668.3 94.8,702.6 152,702.6 
			159.8,702.6 385,702.6 386.8,702.6 538.1,702.6 547.5,702.6 612.4,702.6 617.1,702.6 636.2,702.6 644.4,702.6 660,702.6 
			694.9,702.6 694.9,702.7 716.8,702.7 716.8,702.6 745.4,702.6 786.9,702.6 803.8,702.6 808.4,702.6 873.5,702.6 873.5,668.3 
			889.3,668.3 889.3,702.6 946.5,702.6 954.3,702.6 1179.5,702.6 1181.3,702.6 1332.6,702.6 1342,702.6 1406.9,702.6 1411.6,702.6 
			1430.7,702.6 1438.9,702.6 1454.5,702.6 1489.4,702.6 1489.4,702.7 1511.3,702.7 1511.3,702.6 1539.9,702.6 1598.3,702.6 
			1598.3,594.7 		"/>
	</g>
</g>
<g>
	<g id="XMLID_1077_">
		<defs>
			<rect id="XMLID_1027_" x="-151.4" y="-127.1" width="1415.2" height="865.1"/>
		</defs>
		<clipPath id="XMLID_2_">
			<use xlink:href="#XMLID_1027_"  overflow="visible"/>
		</clipPath>
		<g id="XMLID_890_" clip-path="url(#XMLID_2_)">
			<g id="XMLID_891_">
				<g id="XMLID_896_">
					<circle id="XMLID_902_" fill="#007EAF" cx="944.3" cy="466.3" r="56.8"/>
					<circle id="XMLID_901_" fill="#007EAF" cx="973.5" cy="395.6" r="56.8"/>
					<circle id="XMLID_900_" fill="#007EAF" cx="1008.7" cy="339.5" r="56.8"/>
					<circle id="XMLID_899_" fill="#007EAF" cx="1039.8" cy="389.4" r="56.8"/>
					<circle id="XMLID_898_" fill="#007EAF" cx="1011.6" cy="482.4" r="56.8"/>
					<circle id="XMLID_897_" fill="#007EAF" cx="1068.3" cy="465" r="56.8"/>
				</g>
				<g id="XMLID_892_">
					<path id="XMLID_895_" fill="#008DC4" d="M1007.3,596L1007.3,596c-2.2,0-4-1.8-4-4V385.4c0-2.2,1.8-4,4-4l0,0c2.2,0,4,1.8,4,4
						V592C1011.4,594.2,1009.6,596,1007.3,596z"/>
					<path id="XMLID_894_" fill="#008DC4" d="M1005.7,486.8L1005.7,486.8c-1.6-1.6-1.6-4.1,0-5.7l22.1-22.1c1.6-1.6,4.1-1.6,5.7,0
						l0,0c1.6,1.6,1.6,4.1,0,5.7l-22.1,22.1C1009.8,488.3,1007.2,488.3,1005.7,486.8z"/>
					<path id="XMLID_893_" fill="#008DC4" d="M1009.7,420.6L1009.7,420.6c1.6-1.6,1.6-4.1,0-5.7l-22.1-22.1c-1.6-1.6-4.1-1.6-5.7,0
						l0,0c-1.6,1.6-1.6,4.1,0,5.7l22.1,22.1C1005.6,422.2,1008.2,422.2,1009.7,420.6z"/>
				</g>
			</g>
		</g>
	</g>
	<g>
		<g>
			<g>
				<g>
					<g>
						<path id="XMLID_1030_" fill="#F1F1F2" d="M937.6,158.5H783.2c1.1-10.9,10.3-19.5,21.5-19.5c1.2-10.8,10.4-19.3,21.6-19.3
							c7.5,0,14.1,3.8,18,9.6c3.7-3,8.5-4.9,13.7-4.9c5.3,0,10.2,1.9,14,5.1c4-4.7,9.9-7.7,16.6-7.7c10.1,0,18.5,6.9,21,16.2
							c2-0.6,4.2-1,6.5-1C927.9,137,937.5,146.6,937.6,158.5z"/>
						<path id="XMLID_1029_" fill="#F1F1F2" d="M1145.5,289.5h-136.1c1.6-10.4,10.6-18.4,21.4-18.4c1.7,0,3.3,0.2,4.9,0.6
							c2.7-8.9,11-15.3,20.7-15.3c5.5,0,10.5,2.1,14.4,5.5c2.8-1.3,5.8-2,9.1-2c6.9,0,13,3.2,17,8.2c3.5-7.2,10.9-12.1,19.5-12.1
							c12,0,21.7,9.7,21.7,21.7c0,1.5-0.2,3-0.5,4.4C1140.8,283.7,1143.6,286.3,1145.5,289.5z"/>
					</g>
					<g>
						<path id="XMLID_1028_" fill="#F1F1F2" d="M345.8,190.7h-99.4c1.1-7.9,6.5-14.4,13.7-17.1c3.4-7.7,11-13,19.9-13
							c6.7,0,12.7,3.1,16.7,7.9c4-4.1,9.5-6.7,15.7-6.7c9.8,0,18.1,6.5,20.8,15.4C339.1,179.5,343.8,184.5,345.8,190.7z"/>
					</g>
				</g>
			</g>
		</g>
	</g>
</g>
<g>
	<g>
		<g>
			<path fill="#BE1E2D" d="M935.5,530.8v63h-52.6v-63c0-2.8,2.3-5,5-5h42.6C933.2,525.8,935.5,528.1,935.5,530.8z"/>
			<g>
				<path fill="#BE1E2D" d="M883.5,583.1c-0.7-0.4-16.8-9.9-18.3-26.4c-0.5-6.3,1.8-10.2,3.9-12.4c5.8-6,15.4-5.6,16.5-5.6l-0.4,7.7
					c-2-0.1-7.7,0.3-10.5,3.3c-1.4,1.5-2,3.6-1.8,6.4c1.1,12.6,14.3,20.3,14.4,20.4L883.5,583.1z"/>
			</g>
		</g>
		<path fill="#EA5444" d="M910.9,593.8h-28v-63c0-2.8,2.3-5,5-5h1.7c0.1,3.3,1,28.4,8,46.5C903.8,588.1,909.2,592.7,910.9,593.8z"/>
		<path fill="#A31F2F" d="M865.2,556.6c1.3,14.9,14.5,24.1,17.6,26v11.2h28c-1.7-1.1-7.1-5.8-13.3-21.5c-7.1-18.1-8-43.2-8-46.5
			h-1.7c-2.8,0-5,2.3-5,5v7.8c-3.5,0.3-9.6,1.3-13.7,5.5C867.1,546.4,864.7,550.3,865.2,556.6z M874.7,549.6
			c2.1-2.1,5.6-2.9,8.2-3.2v26.6c-4-3.4-9.3-9.3-10-17.1C872.7,553.2,873.2,551.1,874.7,549.6z"/>
	</g>
	<g>
		<g>
			
				<rect x="333.9" y="476.4" transform="matrix(0.9847 0.1743 -0.1743 0.9847 95.448 -50.7863)" fill="#009345" width="6.1" height="83.5"/>
			
				<rect x="337.8" y="474.8" transform="matrix(0.9847 0.1743 -0.1743 0.9847 90.1674 -52.2374)" fill="#009345" width="9.4" height="25.1"/>
		</g>
		<g>
			<polygon fill="#9E1F63" points="322.7,570.3 316.7,569.8 323.6,486.5 327.3,481.2 329.7,487 			"/>
		</g>
		<g>
			<polygon fill="#14284E" points="314.3,574.5 308.4,575.7 292.4,493.7 294.5,487.6 298.3,492.5 			"/>
		</g>
		<g>
			<polygon fill="#E8C31E" points="327.7,593.6 301.8,593.6 293.3,525.1 336.1,525.1 			"/>
			<polygon fill="#FDD800" points="337.4,593.6 311.5,593.6 307.7,525.1 345.9,525.1 			"/>
		</g>
	</g>
	<line fill="none" stroke="#E6E7E8" stroke-width="7" stroke-miterlimit="10" x1="239.6" y1="991.9" x2="1109.1" y2="991.9"/>
	<rect x="954.6" y="705.1" fill="#E6E7E8" width="124" height="25"/>
	<rect x="1058.7" y="620.2" fill="#E6E7E8" width="28.2" height="371.3"/>
	<rect x="945.4" y="618.1" fill="#FFFFFF" width="28.2" height="370.3"/>
	<rect x="945.4" y="603.8" fill="#E6E7E8" width="28.2" height="150.9"/>
	<rect x="278.1" y="705.1" fill="#E6E7E8" width="124" height="25"/>
	<rect x="382.2" y="620.2" fill="#E6E7E8" width="28.2" height="368.4"/>
	<rect x="268.9" y="618.1" fill="#E6E7E8" width="28.2" height="370.2"/>
	<path fill="#1C325F" d="M1111,619.9H717.5V596c0-4.2,3.4-7.6,7.6-7.6h378.2c4.2,0,7.6,3.4,7.6,7.6V619.9z"/>
	<g>
		<path fill="#1C325F" d="M996.3,599.6v20.3H238.8v-20.3c0-6.2,5-11.2,11.1-11.2h735.3C991.3,588.4,996.3,593.4,996.3,599.6z"/>
		<path fill="#14284E" d="M795.6,588.2c-27.3,31.7-19.8,22.1-27.3,31.7l-274.6-0.2l31.7-31.1L795.6,588.2z"/>
	</g>
</g>
<g>
	<g>
		<polygon fill="#14284E" points="630.2,587 720.4,587 702.4,332.1 651.7,332.1 		"/>
		<g>
			<path fill="#747282" d="M479.8,496.2h377.5V249.5c0-7.3-5.9-13.1-13.1-13.1H492.9c-7.2,0-13.1,5.9-13.1,13.1"/>
			<path fill="#747282" d="M498.1,536.3h344.4c10.1,0,18.3-8.2,18.3-18.3v-27.2h-381V518C479.8,528.1,488,536.3,498.1,536.3z"/>
			<path fill="#2D2D3A" d="M870.7,251.9V498l-93.5-1.5l-97.9-1.6l-30.9-0.5l-98.9-1.6l-59.9-1v-240c0-8.6,7-15.6,15.6-15.6h350
				C863.7,236.4,870.7,243.3,870.7,251.9z"/>
			<path fill="#FFFFFF" d="M503.7,258.9V476c0,0.8,0.6,1.4,1.4,1.4H855c0.8,0,1.4-0.6,1.4-1.4V258.9c0-0.8-0.6-1.4-1.4-1.4H505.2
				C504.4,257.5,503.7,258.1,503.7,258.9z"/>
			<path fill="#D0D2D3" d="M507.9,536.3h344.4c10.1,0,18.3-8.2,18.3-18.3v-27.2h-381V518C489.6,528.1,497.8,536.3,507.9,536.3z"/>
		</g>
		<path fill="#D0D2D3" d="M595.7,588.7H755c4.9,0,8.9-4,8.9-8.9l0,0c0-4.9-4-8.9-8.9-8.9H595.7c-4.9,0-8.9,4-8.9,8.9l0,0
			C586.8,584.8,590.8,588.7,595.7,588.7z"/>
	</g>
	<circle fill="#2D2D3A" cx="675.6" cy="516.3" r="5.7"/>
</g>
<text transform="matrix(1 0 0 1 537.0004 296.247)"><tspan x="0" y="0" fill="#BE1E2D" font-family="'SegoePrint-Bold'" font-size="21">Graphic Designing</tspan><tspan x="191.1" y="0" fill="#9E1F63" font-family="'SegoePrint-Bold'" font-size="21"> </tspan><tspan x="199.5" y="0" fill="#14284E" font-family="'SegoePrint-Bold'" font-size="21">Process</tspan></text>
<g>
	<path fill="#64798A" d="M562.7,408.1h-11.1c-0.7,0-1.3-0.4-1.5-1.1l-1.4-4.4h17.1l-1.5,4.4C564,407.7,563.4,408.1,562.7,408.1z"/>
	<path fill="#1C325F" d="M544.8,391.4h24.6c1.6,0,2.9,1.3,2.9,2.9v0.2c0,1.6-1.3,2.9-2.9,2.9h-24.6c-1.6,0-2.9-1.3-2.9-2.9v-0.2
		C541.8,392.8,543.1,391.4,544.8,391.4z"/>
	<path fill="#14284E" d="M547.2,397.6h19.9c1.6,0,2.9,1.3,2.9,2.9v0.2c0,1.6-1.3,2.9-2.9,2.9h-19.9c-1.6,0-2.9-1.3-2.9-2.9v-0.2
		C544.3,398.9,545.6,397.6,547.2,397.6z"/>
	<path fill="#FDD800" d="M583,357.9c0-14.8-12.5-26.7-27.5-25.7c-13.1,0.8-23.6,11.6-24.2,24.6c-0.3,8.4,3.3,15.9,9.2,20.9
		c2.6,2.2,4.2,5.6,4.2,9.1v4.7h24.9v-4.7c0-3.5,1.6-6.9,4.3-9.2C579.4,372.8,583,365.7,583,357.9z"/>
	<rect x="550.1" y="358.9" fill="#BE1E2D" width="14.1" height="32.5"/>
	<polygon fill="#E1E6E9" points="550.1,358.9 553.5,353.5 560.8,353.5 564.1,358.9 	"/>
	<path fill="#64798A" d="M553.5,353.5l2.9-4.6c0.4-0.6,1.2-0.6,1.6,0l2.9,4.6H553.5z"/>
	<rect x="554.8" y="358.9" fill="#A31F2F" width="4.7" height="32.5"/>
</g>
<g>
	<path fill="#666666" d="M823.1,346.7h-3.5v1.3h3.5V346.7L823.1,346.7z M816.1,346.7h-3.5v1.3h3.5V346.7L816.1,346.7z M809.1,346.7
		h-3.5v1.3h3.5V346.7L809.1,346.7z M802,346.7h-3.5v1.3h3.5V346.7L802,346.7z M795,346.7h-3.5v1.3h3.5V346.7L795,346.7z
		 M787.9,346.7h-3.5v1.3h3.5V346.7L787.9,346.7z M780.9,346.7h-3.5v1.3h3.5V346.7L780.9,346.7z M773.9,346.7h-3.5v1.3h3.5V346.7
		L773.9,346.7z M766.8,346.7h-3.5v1.3h3.5V346.7L766.8,346.7z M759.8,346.7h-3.5v1.3h3.5V346.7L759.8,346.7z M755.7,348.4h-1.3v3.5
		h1.3V348.4L755.7,348.4z M755.7,355.4h-1.3v3.5h1.3V355.4L755.7,355.4z M755.7,362.4h-1.3v3.5h1.3V362.4L755.7,362.4z M755.7,369.5
		h-1.3v3.5h1.3V369.5L755.7,369.5z M755.7,376.5h-1.3v3.5h1.3V376.5L755.7,376.5z M755.7,383.6h-1.3v3.5h1.3V383.6L755.7,383.6z
		 M755.7,390.6h-1.3v1.6h1.3l0,0l0,0l0,0l0,0c0.3,0,0.6,0,0.6,0v-1.3h-0.6V390.6L755.7,390.6z M763.4,390.9h-3.5v1.3h3.5V390.9
		L763.4,390.9z M770.4,390.9h-3.5v1.3h3.5V390.9L770.4,390.9z M777.4,390.9h-3.5v1.3h3.5V390.9L777.4,390.9z M784.5,390.9H781v1.3
		h3.5V390.9L784.5,390.9z M791.5,390.9H788v1.3h3.5V390.9L791.5,390.9z M798.6,390.9H795v1.3h3.5V390.9L798.6,390.9z M805.6,390.9
		h-3.5v1.3h3.5V390.9L805.6,390.9z M812.6,390.9h-3.5v1.3h3.5V390.9L812.6,390.9z M819.7,390.9h-3.5v1.3h3.5V390.9L819.7,390.9z
		 M826.7,390.9h-3.5v1.3h3.5V390.9L826.7,390.9z M830.2,388.6h-1.3v3.5h1.3V388.6L830.2,388.6z M830.2,381.6h-1.3v3.5h1.3V381.6
		L830.2,381.6z M830.2,374.6h-1.3v3.5h1.3V374.6L830.2,374.6z M830.2,367.5h-1.3v3.5h1.3V367.5L830.2,367.5z M830.2,360.5h-1.3v3.5
		h1.3V360.5L830.2,360.5z M830.2,353.4h-1.3v3.5h1.3V353.4L830.2,353.4z M830.2,346.7h-3.5v1.3h2.2v1.9h1.3V346.7L830.2,346.7z"/>
	<rect x="795" y="368.4" fill="#8BA0AE" width="14.6" height="12.4"/>
	<rect x="795" y="362" fill="#FDD800" width="14.6" height="6.4"/>
	<rect x="793.2" y="372.4" fill="#14284E" width="18.3" height="4.4"/>
	<circle fill="#FDD800" cx="802.4" cy="349" r="16.3"/>
	<g>
		<rect x="795.4" y="341.1" fill="#1C325F" width="14" height="2.6"/>
		<rect x="795.4" y="347.7" fill="#1C325F" width="14" height="2.6"/>
		<rect x="795.4" y="354.2" fill="#1C325F" width="14" height="2.6"/>
	</g>
	<path fill="#BE1E2D" d="M763.5,353.9v54.6h54.6L763.5,353.9z M773.4,378.6l20.1,20h-20.1V378.6z"/>
</g>
<g>
	<polygon fill="#EBF0F2" points="695.9,408.5 648.3,408.5 648.3,333.7 704.4,333.7 704.4,399.9 	"/>
	<polygon fill="#8BA0AE" points="695.9,408.5 695.9,399.9 704.4,399.9 	"/>
	<polygon points="675.3,398.7 681.8,394.8 675.3,391 	"/>
	<rect x="641.4" y="387.8" fill="#14284E" width="28.4" height="14"/>
	<rect x="632.5" y="387.8" fill="#BE1E2D" width="8.9" height="14"/>
	<polygon fill="#FFD983" points="669.9,401.9 675.3,398.7 675.3,391 669.9,387.8 	"/>
	<polygon fill="#14284E" points="657.3,371.9 669.6,357.7 681.9,371.9 	"/>
	<polygon fill="#BE1E2D" points="666.6,371.9 683.2,352.7 699.8,371.9 	"/>
	<circle fill="#8BA0AE" cx="674.3" cy="348.6" r="4.1"/>
</g>
<text transform="matrix(1 0 0 1 527.2497 425.9997)" fill="#14284E" font-family="'SegoePrint-Bold'" font-size="15">Imagine</text>
<text transform="matrix(1 0 0 1 643.1536 425.667)" fill="#14284E" font-family="'SegoePrint-Bold'" font-size="15">Sketch</text>
<text transform="matrix(1 0 0 1 766.8204 425.0003)" fill="#14284E" font-family="'SegoePrint-Bold'" font-size="15">Create</text>
<g>
	<g>
		<path fill="none" stroke="#081344" stroke-width="1.4933" stroke-linecap="round" stroke-miterlimit="10" d="M729.2,877"/>
	</g>
	<g>
		<path fill="none" stroke="#081344" stroke-width="1.4933" stroke-linecap="round" stroke-miterlimit="10" d="M797.2,871.1"/>
		<path fill="none" stroke="#081344" stroke-width="1.4933" stroke-linecap="round" stroke-miterlimit="10" d="M805.3,874.6"/>
		<path fill="none" stroke="#081344" stroke-width="1.4933" stroke-linecap="round" stroke-miterlimit="10" d="M813,879.1"/>
	</g>
	<g>
		<g>
			<rect x="560.1" y="682" fill="#E6E7E8" width="25.2" height="144.4"/>
			<path fill="#BBBDBF" d="M560.1,690.1v31.6l25.2-9.2v-21.4C578.9,690.9,566.8,690.4,560.1,690.1z"/>
		</g>
		<path fill="#2D2D3A" d="M650,694.4H499.4c-7.7,0-14-6.3-14-14l0,0c0-7.7,6.3-14,14-14H650c7.7,0,14,6.3,14,14l0,0
			C664.1,688.1,657.8,694.4,650,694.4z"/>
		<g>
			<g>
				<path fill="#2D2D3A" d="M679.3,873h-15.7c0-17.7-15.3-32.1-34.1-32.1H514.8c-18.8,0-34.1,14.4-34.1,32.1h-15.7
					c0-25.9,22.4-47,49.8-47h114.7C656.9,826,679.3,847.1,679.3,873z"/>
			</g>
			<rect x="554.1" y="803.8" fill="#2D2D3A" width="36.7" height="22.6"/>
		</g>
		<g>
			<ellipse fill="#081344" cx="472.2" cy="887.3" rx="13.1" ry="12.3"/>
			<path fill="#072050" d="M491.1,886.3h-35.8v-8.9c0-6.1,4.9-11,11-11H480c6.1,0,11,4.9,11,11V886.3z"/>
			<ellipse fill="#081344" cx="672.1" cy="887.3" rx="13.1" ry="12.3"/>
			<path fill="#072050" d="M691,886.3h-35.8v-8.9c0-6.1,4.9-11,11-11H680c6.1,0,11,4.9,11,11V886.3z"/>
		</g>
		<rect x="562.8" y="830.6" fill="#2D2D3A" width="20.8" height="44.5"/>
		<g>
			<ellipse fill="#081344" cx="573.7" cy="887.3" rx="13.1" ry="12.3"/>
			<path fill="#072050" d="M592.5,886.3h-35.8v-8.9c0-6.1,4.9-11,11-11h13.7c6.1,0,11,4.9,11,11V886.3z"/>
		</g>
	</g>
	<path fill="#A31F2F" d="M372.4,410.3L406,653.4c2,14.8,14.5,25.9,29.4,26.4l120,0.6L490,375.5l-87.3,0
		C384.1,375.4,369.8,391.8,372.4,410.3z"/>
	<path fill="#BE1E2D" d="M712.6,681.3H523.6c-9.6,0-17.5-7.9-17.5-17.5v-18c0-9.6,7.9-17.5,17.5-17.5h188.9
		c9.6,0,17.5,7.9,17.5,17.5v18C730,673.4,722.2,681.3,712.6,681.3z"/>
	<path fill="#BE1E2D" d="M546.8,642.3c1.6,11.1-3.8,25-15.6,26.5l-4,3.1c-11.8,1.5-19.8,15.5-24.9-24.2l-34.1-249.4
		c-1.6-11.1,6.8-21.4,18.5-22.9l0,0c11.8-1.5,22.7,6.4,24.3,17.5"/>
</g>
</svg>
