<?xml version="1.0" encoding="utf-8"?>
<!-- Generator: Adobe Illustrator 18.0.0, SVG Export Plug-In . SVG Version: 6.00 Build 0)  -->
<!DOCTYPE svg PUBLIC "-//W3C//DTD SVG 1.1 Tiny//EN" "http://www.w3.org/Graphics/SVG/1.1/DTD/svg11-tiny.dtd">
<svg version="1.1" baseProfile="tiny" id="Layer_1" xmlns="http://www.w3.org/2000/svg" xmlns:xlink="http://www.w3.org/1999/xlink"
	 x="0px" y="0px" viewBox="0 0 64 64" xml:space="preserve">
<g>
	<image width="2308" height="2308" xlink:href="../images/42EDF234.png"  transform="matrix(2.774167e-002 0 0 2.774167e-002 0 0)">
	</image>
	<g>
		<circle fill="#00A2FF" cx="31.9" cy="31.9" r="25.4"/>
	</g>
</g>
<g>
	<path fill="#F1F1F2" d="M43.4,19.6H19.7c-0.2,0-0.4,0.2-0.4,0.4v23.3c0,0.2,0.2,0.4,0.4,0.4h23.7c0.2,0,0.4-0.2,0.4-0.4V20
		C43.8,19.7,43.6,19.6,43.4,19.6z"/>
	<path fill="#D0D2D3" d="M43.4,19.6H19.7c-0.2,0-0.4,0.2-0.4,0.4v5.3h24.5V20C43.8,19.7,43.6,19.6,43.4,19.6z"/>
	<path fill="#E6E7E8" d="M19.7,19.6c-0.2,0-0.4,0.2-0.4,0.4v23.3c0,0.2,0.2,0.4,0.4,0.4h11.8v-24H19.7z"/>
	<path fill="#BE1E2D" d="M32,20.8c-0.9,0-1.6,0.7-1.6,1.6c0,0.9,0.7,1.6,1.6,1.6c0.9,0,1.6-0.7,1.6-1.6C33.6,21.5,32.9,20.8,32,20.8
		z"/>
	<path fill="#FDD800" d="M27.5,20.8c-0.9,0-1.6,0.7-1.6,1.6c0,0.9,0.7,1.6,1.6,1.6c0.9,0,1.6-0.7,1.6-1.6
		C29.1,21.5,28.4,20.8,27.5,20.8z"/>
	<path fill="#00A2FF" d="M23,20.8c-0.9,0-1.6,0.7-1.6,1.6c0,0.9,0.7,1.6,1.6,1.6c0.9,0,1.6-0.7,1.6-1.6C24.6,21.5,23.9,20.8,23,20.8
		z"/>
	<g>
		<path fill="#FFFFFF" d="M39.7,22h-4.5c-0.2,0-0.4-0.2-0.4-0.4c0-0.2,0.2-0.4,0.4-0.4h4.5c0.2,0,0.4,0.2,0.4,0.4
			C40.1,21.8,39.9,22,39.7,22z"/>
		<path fill="#FFFFFF" d="M41.8,22H41c-0.2,0-0.4-0.2-0.4-0.4c0-0.2,0.2-0.4,0.4-0.4h0.8c0.2,0,0.4,0.2,0.4,0.4
			C42.2,21.8,42,22,41.8,22z"/>
	</g>
	<g>
		<path fill="#14284E" d="M41.5,33.3l-3.9-3.7c-0.2-0.2-0.5-0.3-0.8-0.3c-0.3,0-0.6,0.1-0.8,0.4c-0.2,0.2-0.3,0.5-0.3,0.8
			c0,0.3,0.1,0.6,0.4,0.8l3,2.8l-3,2.6c-0.2,0.2-0.4,0.5-0.4,0.8c0,0.3,0.1,0.6,0.3,0.8c0.2,0.2,0.5,0.4,0.9,0.4l0,0
			c0.3,0,0.6-0.1,0.8-0.3l3.9-3.5c0.2-0.2,0.4-0.5,0.4-0.8C41.9,33.8,41.8,33.5,41.5,33.3z"/>
		<path fill="#14284E" d="M34,29.8c-0.5-0.3-1.2-0.1-1.6,0.4L28.5,37c-0.3,0.5-0.1,1.2,0.4,1.6c0.2,0.1,0.4,0.2,0.6,0.2
			c0.4,0,0.8-0.2,1-0.6l3.9-6.7c0.2-0.3,0.2-0.6,0.1-0.9C34.4,30.2,34.2,30,34,29.8z"/>
	</g>
	<g>
		<path fill="#BE1E2D" d="M28.5,37c-0.3,0.5-0.1,1.2,0.4,1.6c0.2,0.1,0.4,0.2,0.6,0.2c0.4,0,0.8-0.2,1-0.6l1-1.8v-4.6L28.5,37z"/>
		<path fill="#BE1E2D" d="M27.4,30.5c0-0.3-0.1-0.6-0.3-0.8c-0.2-0.2-0.5-0.3-0.8-0.4c-0.3,0-0.6,0.1-0.8,0.3l-3.9,3.7
			c-0.2,0.2-0.4,0.5-0.4,0.8c0,0.3,0.1,0.6,0.4,0.8l3.9,3.5c0.2,0.2,0.5,0.3,0.8,0.3l0,0c0.3,0,0.6-0.1,0.9-0.4
			c0.4-0.5,0.4-1.2-0.1-1.6l-3-2.6l3-2.8C27.3,31.1,27.4,30.8,27.4,30.5z"/>
	</g>
</g>
</svg>
