<?xml version="1.0" encoding="utf-8"?>
<!-- Generator: Adobe Illustrator 18.0.0, SVG Export Plug-In . SVG Version: 6.00 Build 0)  -->
<!DOCTYPE svg PUBLIC "-//W3C//DTD SVG 1.1//EN" "http://www.w3.org/Graphics/SVG/1.1/DTD/svg11.dtd">
<svg version="1.1" id="Layer_1" xmlns="http://www.w3.org/2000/svg" xmlns:xlink="http://www.w3.org/1999/xlink" x="0px" y="0px"
	 viewBox="0 0 1255.6 733.3" enable-background="new 0 0 1255.6 733.3" xml:space="preserve">
<g>
	<path fill="#FFFFFF" d="M121.8,599.1c1-38.5,1.4-72,4-105.4c0.4-4.5-0.8-4.8-4.8-3.8c-25.4,6.6-50.6,14.3-76.4,19.6
		c-4.9,1-9.8,1.9-14.9,1.5c-5.3-0.5-6.9-2.9-5.7-8.1c2.2-9,7.3-16.4,13.3-23.2C50.2,464.8,66,453.5,82.6,443
		c15.5-9.8,31.8-18.2,48.4-25.8c2.9-1.3,4.1-3.1,4.6-6.2c14.4-87.6,37-172.7,76-252.9c16.5-34,36.1-66,62.5-93.5
		c10.4-10.9,21.8-20.6,34.7-28.4c36.7-22,73.1-21.6,109.3,1.3c21.5,13.7,39,31.7,54.6,51.6c31.8,40.6,54.9,86.1,74.7,133.3
		c15.2,36.2,27.9,73.4,38.2,111.3c1.2,4.6,2.6,5.5,7.3,3.8c56.1-19.9,104.3-52.1,147.2-92.8c13.4-12.7,26.3-26,39.4-39
		c3.9-3.9,7.8-7.8,12.5-10.8c5.5-3.5,8.3-2.3,9.1,4.2c0.8,6.3,0.4,12.6-1.4,18.8c-6.9,22.9-18.1,43.6-31.3,63.3
		c-39.3,59-91.8,102.3-156.9,130.3c-5.1,2.2-6.4,4.1-5.3,9.7c14.6,70.9,17.9,142.7,17.2,214.8c-0.2,21.5-0.3,43-3.9,64.3
		c-0.4,2.6-1.1,5.2-2.1,7.7c-2.3,6.1-5.4,6.5-9.5,1.2c-2.8-3.6-4.7-7.7-6.5-11.8c-9-20.6-15.5-42.1-22-63.6
		c-19.1-63-36.4-126.6-55.6-189.6c-1.5-5-3-6.3-8.3-5.4c-32.5,5.6-65.3,5.5-98.2,6.2c-56.2,1.3-112,7.1-167.4,16.7
		c-13.4,2.3-26.8,5.1-40.3,7.3c-4.8,0.8-6.9,2.8-8.1,7.5c-14.2,53.7-28.6,107.4-43.1,161c-5.2,19.3-10.7,38.5-17.9,57.1
		c-1.7,4.5-3.6,9-6.4,13c-1,1.5-2.2,3.3-4.2,3c-2-0.3-2.8-2.3-3.4-4c-3-9-3.4-18.3-4-27.6C120.9,650.8,121.5,622.4,121.8,599.1z
		 M229,382.2c1.7-0.4,2.5-0.6,3.2-0.8c59.6-15.6,120.2-23.5,181.7-24.2c23.8-0.3,47.6,1.6,71.5,0.8c10.4-0.4,10.4-0.3,7-9.8
		c-15.8-44.5-32.5-88.7-55-130.4c-10.8-20-22.6-39.3-39.4-55c-24.1-22.6-46.6-22.2-69.9,1.1c-11,11.1-19.7,23.9-27.4,37.3
		c-20.6,35.7-35.5,74-49.3,112.8C243.5,336.3,236.2,358.7,229,382.2z"/>
	<path fill="#FFFFFF" d="M1126.5,452.3c0.2-59.5,2.7-113,10.2-166.2c3.5-25.2,8.1-50.2,16.2-74.4c0.6-1.7,1.6-3.2-0.3-5
		c-2.3-2.2-0.8-4.4-0.2-7.1c0.8-3.8-2.2-8.2,1-12.1c-3.6-6.2-2.1-9.1,5-9.1c12.3-0.1,24.7-0.1,37,0c7.5,0,9,2.6,5.4,9.2
		c-0.5,0.9-0.6,1.3,0.3,1.8c0.5,0.3,1,0.9,1.4,1.4c2.3,3.4-2.4,6.3-1.7,7.7c1.5,2.8,3.7,4.9,1.1,7.8c-1.6,1.7-1.3,3.1-0.7,4.9
		c10.8,32.6,15.8,66.3,19.5,100.3c6.9,62.6,8.4,125.3,5.9,188.2c-2.1,53.8-6.4,107.3-19,159.8c-3.1,12.9-6.8,25.5-12.8,37.4
		c-2.1,4.2-4.4,8.3-7.7,11.7c-6.7,7.1-13.5,7.1-20.2-0.1c-3.6-3.8-6.1-8.3-8.3-13.1c-8.7-18.8-13.3-38.9-17.1-59.1
		C1129.8,573.7,1126.9,510.2,1126.5,452.3z"/>
	<path fill="#FFFFFF" d="M1177.2,175.4c-6.3,0-12.7,0-19,0c-5.9,0-9-1.9-9.2-7.5c-1-25.7-12.7-47.5-24-69.6
		c-16.3-32,4.6-71.1,40.9-77.1c31-5.2,59.5,12.2,66.9,40.9c3.6,14.1,1.3,27.4-5.6,40c-8.5,15.5-16.2,31.3-20.1,48.7
		c-1.1,5.1-1.3,10.2-1.8,15.4c-0.7,7.2-3.1,9.3-10.2,9.4C1189.2,175.4,1183.2,175.4,1177.2,175.4z"/>
	<path fill="#FFFFFF" d="M947.5,625.4c0,31.2-23.5,55.5-52.8,54.6c-15.6-0.5-28.1-7.5-37.7-19.7c-16.4-21-15.5-51.6,2.4-71.3
		c13.6-14.9,30.6-20.6,50.2-14.9c20.6,6,32.2,20.8,36.7,41.4C947.2,619,947.7,622.4,947.5,625.4z"/>
	<path fill="#FFFFFF" d="M800.9,244.8c-1.1-5.3,0.4-9,1.2-12.8c2.5-11.2,5.5-22.3,6.9-33.7c0.6-4.5,1-9,0.1-13.4
		c-1.1-6-4.4-7.5-9.7-4.5c-5.4,3.1-9.9,7.3-14.3,11.6c-7.3,7.1-14.3,14.4-21.7,21.4c-2.3,2.1-4.9,6.4-8,4.4c-2.6-1.7,0.1-5.8,1-8.7
		c7.6-22.6,20.6-42.1,35.8-60.1c9.2-11,19-21.5,28.4-32.2c6.5-7.4,13.5-14.6,17.5-24c0.6,16.8-0.7,33.3-2.7,49.8
		c-3.1,25.5-7.7,50.7-17.9,74.5C813.4,226.6,808.1,235.7,800.9,244.8z"/>
</g>
</svg>
