<?xml version="1.0" encoding="utf-8"?>
<!-- Generator: Adobe Illustrator 18.0.0, SVG Export Plug-In . SVG Version: 6.00 Build 0)  -->
<!DOCTYPE svg PUBLIC "-//W3C//DTD SVG 1.1//EN" "http://www.w3.org/Graphics/SVG/1.1/DTD/svg11.dtd">
<svg version="1.1" id="Layer_1" xmlns="http://www.w3.org/2000/svg" xmlns:xlink="http://www.w3.org/1999/xlink" x="0px" y="0px"
	 viewBox="0.6 9.6 63 44.9" enable-background="new 0.6 9.6 63 44.9" xml:space="preserve">
<g>
	<g>
		<path fill="#00A2FF" d="M51.6,44.3c-0.2,0-0.5-0.1-0.7-0.3L39.3,33c-0.4-0.4-0.4-1,0-1.4s1-0.4,1.4,0l11.7,11c0.4,0.4,0.4,1,0,1.4
			C52.2,44.1,51.9,44.3,51.6,44.3z"/>
		<path fill="#00A2FF" d="M12.6,44.3c-0.3,0-0.5-0.1-0.7-0.3c-0.4-0.4-0.4-1.1,0-1.4l11.7-11c0.4-0.4,1.1-0.4,1.4,0
			c0.4,0.4,0.4,1.1,0,1.4L13.3,44C13.1,44.2,12.9,44.3,12.6,44.3z"/>
	</g>
	<path fill="#00A2FF" d="M58.6,54.5H5.7c-2.8,0-5.1-2.3-5.1-5.1V14.7c0-2.8,2.3-5.1,5.1-5.1h52.8c2.8,0,5.1,2.3,5.1,5.1v34.6
		C63.6,52.2,61.4,54.5,58.6,54.5z M5.7,11.7c-1.7,0-3,1.4-3,3v34.6c0,1.7,1.4,3,3,3h52.8c1.7,0,3-1.4,3-3V14.7c0-1.7-1.4-3-3-3H5.7z
		"/>
	<path fill="#00A2FF" d="M32.1,37.2c-1.4,0-2.7-0.4-3.7-1.3L2.3,13.1c-0.4-0.4-0.5-1-0.1-1.4s1-0.5,1.4-0.1l26.1,22.8
		c1.3,1.1,3.5,1.1,4.8,0l26.1-22.7c0.4-0.4,1.1-0.3,1.4,0.1c0.4,0.4,0.3,1.1-0.1,1.4l-26,22.6C34.8,36.7,33.5,37.2,32.1,37.2z"/>
</g>
</svg>
