<?xml version="1.0" encoding="utf-8"?>
<!-- Generator: Adobe Illustrator 18.0.0, SVG Export Plug-In . SVG Version: 6.00 Build 0)  -->
<!DOCTYPE svg PUBLIC "-//W3C//DTD SVG 1.1//EN" "http://www.w3.org/Graphics/SVG/1.1/DTD/svg11.dtd">
<svg version="1.1" id="Layer_1" xmlns="http://www.w3.org/2000/svg" xmlns:xlink="http://www.w3.org/1999/xlink" x="0px" y="0px"
	 viewBox="1.3 31.9 60.8 27.2" enable-background="new 1.3 31.9 60.8 27.2" xml:space="preserve">
<g>
	<g>
		<g>
			<path fill="#00A2FF" d="M26.2,33.5l14.1,11.1c0.6,0.5,1.5,0.7,2.4,0.7s1.7-0.2,2.4-0.7l14.1-11.1c1.1-0.9,0.9-1.6-0.6-1.6H42.7
				H26.8C25.4,31.9,25.1,32.6,26.2,33.5z"/>
			<path fill="#00A2FF" d="M60.1,36.4L44.7,48.1c-0.6,0.4-1.3,0.6-2.1,0.6s-1.5-0.2-2.1-0.6L25.2,36.4c-1.1-0.9-2.1-0.4-2.1,1v19.1
				c0,1.4,1.2,2.6,2.6,2.6h16.9h16.9c1.4,0,2.6-1.2,2.6-2.6V37.4C62.2,36,61.3,35.5,60.1,36.4z"/>
		</g>
	</g>
	<path fill="#00A2FF" d="M19.8,32.9h-18c-0.3,0-0.5-0.2-0.5-0.5l0,0c0-0.3,0.2-0.5,0.5-0.5h18c0.3,0,0.5,0.2,0.5,0.5l0,0
		C20.3,32.7,20,32.9,19.8,32.9z"/>
	<path fill="#00A2FF" d="M19.8,36H7.9c-0.3,0-0.5-0.2-0.5-0.5l0,0c0-0.3,0.2-0.5,0.5-0.5h11.9c0.3,0,0.5,0.2,0.5,0.5l0,0
		C20.3,35.7,20.1,36,19.8,36z"/>
	<path fill="#00A2FF" d="M19.8,39.1h-6.2c-0.3,0-0.5-0.2-0.5-0.5l0,0c0-0.3,0.2-0.5,0.5-0.5h6.2c0.3,0,0.5,0.2,0.5,0.5l0,0
		C20.3,38.8,20.1,39.1,19.8,39.1z"/>
</g>
</svg>
