<?xml version="1.0" encoding="utf-8"?>
<!-- Generator: Adobe Illustrator 18.0.0, SVG Export Plug-In . SVG Version: 6.00 Build 0)  -->
<!DOCTYPE svg PUBLIC "-//W3C//DTD SVG 1.1//EN" "http://www.w3.org/Graphics/SVG/1.1/DTD/svg11.dtd">
<svg version="1.1" id="Layer_1" xmlns="http://www.w3.org/2000/svg" xmlns:xlink="http://www.w3.org/1999/xlink" x="0px" y="0px"
	 viewBox="11.8 0.9 41.3 62.8" enable-background="new 11.8 0.9 41.3 62.8" xml:space="preserve">
<g>
	<path fill="#00A2FF" d="M32.5,1.5c-11,0-19.9,8.9-19.9,19.9c0,9.8,6.8,22.7,12.5,31.7c0.4,0.6,1.1,0.8,1.7,0.4
		c0.6-0.4,0.8-1.1,0.4-1.7c-10-15.9-12.1-25.3-12.1-30.4C15.1,11.8,22.9,4,32.5,4s17.4,7.8,17.4,17.4C49.9,37,31.7,60.7,31.5,61
		c-0.4,0.5-0.3,1.3,0.2,1.8c0.2,0.2,0.5,0.3,0.8,0.3c0.4,0,0.7-0.2,1-0.5c0.8-1,18.9-24.7,18.9-41.1C52.4,10.5,43.5,1.5,32.5,1.5z"
		/>
	<path fill="#00A2FF" d="M32.5,15.1c0.7,0,1.3-0.6,1.3-1.3s-0.6-1.3-1.3-1.3c-4.9,0-8.8,4-8.8,8.8s4,8.8,8.8,8.8s8.8-4,8.8-8.8
		c0-1.9-0.6-3.8-1.8-5.3c-0.4-0.6-1.2-0.7-1.8-0.2c-0.6,0.4-0.7,1.2-0.2,1.8c0.8,1.1,1.3,2.4,1.3,3.8c0,3.5-2.8,6.3-6.3,6.3
		s-6.4-2.8-6.4-6.3S29,15.1,32.5,15.1z"/>
</g>
</svg>
