<?xml version="1.0" encoding="utf-8"?>
<!-- Generator: Adobe Illustrator 18.0.0, SVG Export Plug-In . SVG Version: 6.00 Build 0)  -->
<!DOCTYPE svg PUBLIC "-//W3C//DTD SVG 1.1 Tiny//EN" "http://www.w3.org/Graphics/SVG/1.1/DTD/svg11-tiny.dtd">
<svg version="1.1" baseProfile="tiny" id="Layer_1" xmlns="http://www.w3.org/2000/svg" xmlns:xlink="http://www.w3.org/1999/xlink"
	 x="0px" y="0px" viewBox="0 0 64 64" xml:space="preserve">
<g>
	<path fill="#009345" d="M46.7,14.2L9.1,31.5c-0.4,0.2-0.7,0.6-0.6,1.1c0.1,0.5,0.4,0.8,0.9,0.9L26,36.3L27.9,52
		c0.1,0.5,0.4,0.8,0.9,0.9c0.1,0,0.1,0,0.2,0c0.4,0,0.8-0.2,0.9-0.6l18.2-36.7c0.2-0.4,0.1-0.9-0.2-1.2S47.1,14,46.7,14.2z
		 M29.6,48.2l-1.6-13c-0.1-0.5-0.4-0.8-0.9-0.9l-14-2.3l31.8-14.6L29.6,48.2z"/>
	<path fill="#009345" d="M32,0.4C14.6,0.4,0.4,14.6,0.4,32S14.6,63.6,32,63.6S63.6,49.4,63.6,32S49.4,0.4,32,0.4z M32,61.4
		C15.8,61.4,2.6,48.2,2.6,32S15.8,2.6,32,2.6S61.4,15.8,61.4,32S48.2,61.4,32,61.4z"/>
</g>
</svg>
