<?xml version="1.0" encoding="utf-8"?>
<!-- Generator: Adobe Illustrator 18.0.0, SVG Export Plug-In . SVG Version: 6.00 Build 0)  -->
<!DOCTYPE svg PUBLIC "-//W3C//DTD SVG 1.1//EN" "http://www.w3.org/Graphics/SVG/1.1/DTD/svg11.dtd">
<svg version="1.1" id="Layer_1" xmlns="http://www.w3.org/2000/svg" xmlns:xlink="http://www.w3.org/1999/xlink" x="0px" y="0px"
	 viewBox="0 14.1 64 32.6" enable-background="new 0 14.1 64 32.6" xml:space="preserve">
<g>
	<g>
		<g>
			<path fill="#009345" stroke="#F0F9FC" stroke-miterlimit="10" d="M12.4,33.1c-3.6,0-6.5,2.9-6.5,6.5s2.9,6.5,6.5,6.5
				s6.5-2.9,6.5-6.5C18.9,36.1,16,33.1,12.4,33.1z M12.4,43.6c-2.2,0-3.9-1.7-3.9-3.9s1.7-3.9,3.9-3.9s3.9,1.7,3.9,3.9
				C16.3,41.8,14.5,43.6,12.4,43.6z"/>
		</g>
	</g>
	<g>
		<g>
			<path fill="#009345" stroke="#F0F9FC" stroke-miterlimit="10" d="M51.6,33.1c-3.6,0-6.5,2.9-6.5,6.5s2.9,6.5,6.5,6.5
				s6.5-2.9,6.5-6.5C58.1,36.1,55.1,33.1,51.6,33.1z M51.6,43.6c-2.2,0-3.9-1.7-3.9-3.9s1.7-3.9,3.9-3.9s3.9,1.7,3.9,3.9
				C55.5,41.8,53.7,43.6,51.6,43.6z"/>
		</g>
	</g>
	<g>
		<g>
			<path fill="#009345" stroke="#F0F9FC" stroke-miterlimit="10" d="M55.5,25.3h-2.2c-0.8,0-1.6-0.3-2.2-0.8l-10.2-8.2
				c-1.2-0.9-2.6-1.4-4.1-1.4h-19c-2.2,0-4.2,1.1-5.4,2.9l-2.2,3.3c-0.6,1-1.8,1.6-2.9,1.6c-3.6,0-6.5,2.9-6.5,6.5v5.2
				c0,3.6,2.9,6.5,6.5,6.5c0.7,0,1.3-0.6,1.3-1.3S8,38.3,7.3,38.3c-2.2,0-3.9-1.7-3.9-3.9v-5.2c0-2.2,1.7-3.9,3.9-3.9
				c2,0,4-1,5.1-2.8l2.2-3.3c0.7-1.1,1.9-1.7,3.3-1.7h18.9c0.9,0,1.7,0.3,2.4,0.8l10.3,8.3c1.1,0.9,2.4,1.3,3.8,1.3h2.2
				c3.8,0,5.2,3.9,5.2,6.5s-2,3.9-3.9,3.9c-0.7,0-1.3,0.6-1.3,1.3s0.6,1.3,1.3,1.3c3.7,0,6.5-2.8,6.5-6.5
				C63.3,30,60.5,25.3,55.5,25.3z"/>
		</g>
	</g>
	<g>
		<g>
			<path fill="#009345" stroke="#F0F9FC" stroke-miterlimit="10" d="M46.3,38.3H17.6c-0.7,0-1.3,0.6-1.3,1.3s0.6,1.3,1.3,1.3h28.7
				c0.7,0,1.3-0.6,1.3-1.3S47,38.3,46.3,38.3z"/>
		</g>
	</g>
	<g>
		<g>
			<path fill="#009345" stroke="#F0F9FC" stroke-miterlimit="10" d="M43.7,25.3H32v-3.9c0-0.7-0.6-1.3-1.3-1.3s-1.3,0.6-1.3,1.3v5.2
				c0,0.7,0.6,1.3,1.3,1.3h13.1c0.7,0,1.3-0.6,1.3-1.3C45,25.9,44.4,25.3,43.7,25.3z"/>
		</g>
	</g>
	<g>
		<g>
			<path fill="#009345" stroke="#F0F9FC" stroke-miterlimit="10" d="M25.4,25.3h-8.3l1.7-3.3c0.3-0.6,0.1-1.4-0.6-1.7
				s-1.4-0.1-1.7,0.6L13.9,26c-0.2,0.4-0.2,0.9,0.1,1.3s0.6,0.7,1,0.7h10.4c0.7,0,1.3-0.6,1.3-1.3C26.7,25.9,26.1,25.3,25.4,25.3z"
				/>
		</g>
	</g>
	<g>
		<g>
			<path fill="#009345" stroke="#F0F9FC" stroke-miterlimit="10" d="M35.9,30.5h-2.6c-0.7,0-1.3,0.6-1.3,1.3c0,0.7,0.6,1.3,1.3,1.3
				h2.6c0.7,0,1.3-0.6,1.3-1.3C37.2,31.1,36.6,30.5,35.9,30.5z"/>
		</g>
	</g>
</g>
</svg>
