<?xml version="1.0" encoding="utf-8"?>
<!-- Generator: Adobe Illustrator 18.0.0, SVG Export Plug-In . SVG Version: 6.00 Build 0)  -->
<!DOCTYPE svg PUBLIC "-//W3C//DTD SVG 1.1//EN" "http://www.w3.org/Graphics/SVG/1.1/DTD/svg11.dtd">
<svg version="1.1" id="Capa_1" xmlns="http://www.w3.org/2000/svg" xmlns:xlink="http://www.w3.org/1999/xlink" x="0px" y="0px"
	 viewBox="0 80.3 512.5 352" enable-background="new 0 80.3 512.5 352" xml:space="preserve">
<g>
	<path fill="#01A1FF" d="M113.5,208.3c61.9,0,112,50.1,112,112s-50.1,112-112,112s-112-50.1-112-112l-0.5-16
		c0-123.7,100.3-224,224-224v64c-42.7,0-82.9,16.6-113.1,46.9c-5.8,5.8-11.1,12-15.9,18.5C101.7,208.7,107.5,208.3,113.5,208.3z
		 M401.5,208.3c61.9,0,112,50.1,112,112s-50.1,112-112,112s-112-50.1-112-112l-0.5-16c0-123.7,100.3-224,224-224v64
		c-42.7,0-82.9,16.6-113.1,46.9c-5.8,5.8-11.1,12-15.9,18.5C389.7,208.7,395.5,208.3,401.5,208.3z"/>
</g>
</svg>
