<?xml version="1.0" encoding="utf-8"?>
<!-- Generator: Adobe Illustrator 18.0.0, SVG Export Plug-In . SVG Version: 6.00 Build 0)  -->
<!DOCTYPE svg PUBLIC "-//W3C//DTD SVG 1.1//EN" "http://www.w3.org/Graphics/SVG/1.1/DTD/svg11.dtd">
<svg version="1.1" id="Layer_1" xmlns="http://www.w3.org/2000/svg" xmlns:xlink="http://www.w3.org/1999/xlink" x="0px" y="0px"
	 viewBox="5.2 0 53.9 64" enable-background="new 5.2 0 53.9 64" xml:space="preserve">
<g>
	<g>
		<g>
			<g>
				<path fill="#FFFFFF" d="M58.6,56.5c-0.1,0-0.2-0.1-0.3-0.2c-0.2-0.3-0.3-0.6-0.4-0.9c-0.1-0.2,0-0.4,0.2-0.4
					c0.2-0.1,0.4,0,0.4,0.2c0.1,0.3,0.2,0.6,0.3,0.9c0.1,0.2,0,0.4-0.2,0.4C58.7,56.5,58.7,56.5,58.6,56.5z M58,54.7
					c-0.2,0-0.3-0.1-0.3-0.3c-0.1-0.3-0.1-0.7-0.1-1c0-0.2,0.1-0.3,0.3-0.3c0.2,0,0.3,0.1,0.3,0.3c0,0.3,0.1,0.6,0.1,0.9
					C58.4,54.5,58.2,54.7,58,54.7C58.1,54.7,58,54.7,58,54.7z"/>
			</g>
		</g>
	</g>
	<g>
		<g>
			<g>
				<path fill="#DBE9F2" d="M17.6,64c-1.5,0-2.8-0.5-3.9-1.5c-0.8,0.3-1.6,0.5-2.4,0.5c-3.5,0-6.2-2.9-6.1-6.5
					c0.1-3.6,2.9-6.4,6.4-6.4c0.4,0,0.8,0,1.2,0.1c0.9-3,3.6-5.2,6.8-5.2c0.5,0,1,0.1,1.5,0.2c0.3-2.6,2.4-4.6,5-4.6
					c0.3,0,0.7,0,1,0.1l0.8-18.5h8.3l0.8,19.9c0.4-0.1,0.8-0.2,1.2-0.2c2,0,3.6,1.6,3.7,3.7c0.9,0.3,1.6,1,1.9,1.9
					c0.2,0,0.5,0,0.7,0c2.3,0,4.5,1.2,5.8,3.2c0.8-0.4,1.7-0.6,2.5-0.6c3.4,0,6.3,2.9,6.4,6.4c0.1,3.6-2.7,6.5-6.1,6.5
					c-1.8,0-3.5-0.8-4.7-2.1c-1.1,0.8-2.4,1.1-3.8,1.1c-1,0-2.1-0.2-3-0.7c-1.4,1.1-3.1,1.7-4.8,1.7c-2.2,0-4.3-1-5.9-2.6h-0.3
					C29,62,26.9,63,24.7,63c-1,0-2-0.2-3-0.6C20.6,63.4,19.1,64,17.6,64z"/>
			</g>
		</g>
		<g>
			<g>
				<path fill="#FFFFFF" d="M52.8,51.1c-1.1,0-2.1,0.3-2.9,0.9c-1-2.1-3.1-3.6-5.5-3.6c-0.5,0-1,0.1-1.5,0.2c0-0.1,0-0.1,0-0.2
					c0-1.1-0.9-2.1-2-2.1c0,0-0.1,0-0.1,0c0.1-0.2,0.1-0.5,0.1-0.8c0-1.5-1.2-2.7-2.7-2.7c-0.9,0-1.7,0.4-2.1,1.1l-0.8-20.9h-6.4
					l-0.8,19c-0.6-0.3-1.3-0.5-2-0.5c-2.2,0-4,1.8-4,4.1c0,0.3,0,0.7,0.1,1c-0.8-0.4-1.7-0.6-2.6-0.6c-3.1,0-5.6,2.4-6,5.5
					c-0.6-0.3-1.3-0.4-2-0.4c-2.9,0-5.2,2.4-5.3,5.4c-0.1,3,2.2,5.4,5.1,5.4c0.9,0,1.8-0.3,2.6-0.7c0.9,1,2.3,1.7,3.7,1.7
					c1.5,0,3-0.7,3.9-1.8c0.9,0.5,2,0.8,3.2,0.8c2.2,0,4.1-1,5.4-2.6h1.2c1.3,1.6,3.2,2.6,5.4,2.6c1.8,0,3.4-0.7,4.7-1.9
					c0.9,0.6,2,0.9,3.2,0.9c1.5,0,2.9-0.6,4-1.6c0.9,1.5,2.6,2.6,4.5,2.6c2.9,0,5.2-2.4,5.1-5.4C58,53.5,55.6,51.1,52.8,51.1z
					 M36.1,47.5C36.1,47.5,36.1,47.5,36.1,47.5L36.1,47.5C36.1,47.5,36.1,47.5,36.1,47.5z"/>
			</g>
		</g>
		<g>
			<g>
				<path fill="#DBE9F2" d="M28.7,59.6c0,0.4-0.1,0.7-0.2,1.1c-0.5,1.6-2,2.8-3.7,2.8c-1.4,0-2.6-0.7-3.3-1.8
					c-0.4-0.6-0.6-1.3-0.6-2.1c0-0.5,0.1-1.1,0.3-1.5c0.1-0.2,0.2-0.4,0.3-0.5c0.7-1.1,1.9-1.8,3.3-1.8c1.3,0,2.4,0.6,3.1,1.5
					c0.1,0.1,0.1,0.1,0.1,0.2C28.5,58,28.7,58.8,28.7,59.6z"/>
			</g>
		</g>
		<g>
			<g>
				<path fill="#FFFFFF" d="M27.9,57.2c-0.6,1.4-2,2.4-3.6,2.4c-0.9,0-1.6-0.3-2.3-0.8c-0.3-0.2-0.6-0.5-0.8-0.8
					c0,0-0.1-0.1-0.1-0.1c-0.3-0.4-0.5-1-0.7-1.5c0.4,0.3,0.7,0.6,0.9,0.9c0,0.1,0.1,0.1,0.1,0.1c0.7-1.1,1.9-1.8,3.3-1.8
					C26.1,55.7,27.2,56.3,27.9,57.2z"/>
			</g>
		</g>
		<g>
			<g>
				<path fill="#DBE9F2" d="M22.1,59.6c0,0.8-0.2,1.5-0.6,2.1c-0.7,1.1-1.9,1.8-3.3,1.8c-2.1,0-3.9-1.7-3.9-3.9
					c0-0.5,0.1-0.9,0.2-1.3c0.5-1.5,2-2.6,3.7-2.6c0.9,0,1.6,0.3,2.3,0.8c0.4,0.3,0.7,0.6,0.9,0.9c0,0.1,0.1,0.1,0.1,0.1
					c0.2,0.4,0.4,0.8,0.5,1.3C22.1,59.1,22.1,59.3,22.1,59.6z"/>
			</g>
		</g>
		<g>
			<g>
				<path fill="#FFFFFF" d="M21.4,57.4c-0.1,0.2-0.2,0.4-0.3,0.6c-0.7,1.2-1.9,2-3.4,2c-1.3,0-2.5-0.7-3.2-1.7
					c0.5-1.5,2-2.6,3.7-2.6c0.9,0,1.6,0.3,2.3,0.8C20.9,56.7,21.2,57,21.4,57.4z"/>
			</g>
		</g>
		<g>
			<g>
				<path fill="#DBE9F2" d="M38.5,58.2c0,2.9-2.4,5.3-5.3,5.3c-2,0-3.8-1.1-4.7-2.8l0,0c-0.4-0.7-0.6-1.6-0.6-2.4
					c0-0.3,0-0.6,0.1-0.8l0,0c0-0.2,0.1-0.5,0.2-0.7c0.7-2.2,2.7-3.8,5-3.8c1.8,0,3.4,0.9,4.4,2.4C38.2,56.1,38.5,57.1,38.5,58.2z"
					/>
			</g>
		</g>
		<g>
			<g>
				<path fill="#FFFFFF" d="M37.6,55.3c-0.7,2.2-2.7,3.8-5,3.8c-1.8,0-3.4-0.9-4.4-2.4c0.7-2.2,2.7-3.8,5-3.8
					C35.1,52.9,36.7,53.9,37.6,55.3z"/>
			</g>
		</g>
		<g>
			<g>
				<g>
					<g>
						<path fill="#BE202E" d="M39.9,25.6l0.5,0.5l0.1,0.1l2,2.2c0.5,0.5,0.7,1.3,0.5,2l-1.6,6.2c0,0.2-0.2,0.3-0.3,0.3h-0.7
							c-0.2,0-0.3-0.1-0.3-0.3l-0.8-3.5c0,0,0,0,0-0.1c-0.1-0.2-0.2-0.4-0.3-0.5c-0.1-0.2-0.3-0.3-0.5-0.3l-3-1L39.9,25.6z"/>
					</g>
				</g>
				<g>
					<g>
						<path fill="#BE202E" d="M24.8,25.7l0.4,0.5l3.9,5l-2.7,1l-0.3,0.1c-0.4,0.1-0.7,0.5-0.8,0.9l-0.1,0.2l-0.1,0.4l-0.7,2.9
							c0,0.2-0.2,0.3-0.3,0.3h-0.7c-0.2,0-0.3-0.1-0.3-0.3l-1.6-6.1c-0.2-0.7,0-1.5,0.5-2.1l1.7-1.9l0.1-0.1L24.8,25.7z"/>
					</g>
				</g>
			</g>
			<g>
				<g>
					<path fill="#6B5854" d="M36.9,35.3l-9.6,0.1c-0.2,0-0.3-0.1-0.4-0.3l-1-3.9L38.3,31l-1,3.9C37.3,35.1,37.1,35.3,36.9,35.3z"/>
				</g>
			</g>
			<g>
				<g>
					<path fill="#FCB763" d="M25,26.6l3.9,5l-2.7,1C25.9,31.3,25.3,29.2,25,26.6z"/>
				</g>
			</g>
			<g>
				<g>
					<path fill="#AD2131" d="M23.9,26.7l0.9-1l0.4,0.5l3.9,5l-2.7,1l-0.3,0.1c-0.4,0.1-0.7,0.5-0.8,0.9l-0.1,0.2l-0.1,0.4
						C24.8,32.4,24.1,29.9,23.9,26.7L23.9,26.7z"/>
				</g>
			</g>
			<g>
				<g>
					<path fill="#AD2131" d="M39.9,25.6l0.5,0.5l0.1,0.1c-0.2,2.9-0.8,5.2-1.3,6.8c-0.1-0.2-0.2-0.4-0.3-0.5
						c-0.1-0.2-0.3-0.3-0.5-0.3l-3-1L39.9,25.6z"/>
				</g>
			</g>
			<g>
				<g>
					<path fill="#FFF7C1" d="M38.3,32.6c-0.1,0.2-0.2,0.3-0.4,0.3L31.8,33c0,0-4.4,0-5.5,0c-0.2,0-0.3-0.1-0.4-0.3
						c-1-2.8-4.5-15,3.2-27.7c0.3-0.4,0.5-0.9,0.8-1.3C30.6,2.9,31.3,2,32,1.1c0.2-0.2,0.4-0.2,0.6,0c0.7,0.9,1.3,1.7,1.9,2.6
						c0.3,0.4,0.6,0.9,0.8,1.3C42.9,17.6,39.3,29.8,38.3,32.6z"/>
				</g>
			</g>
			<g>
				<g>
					<path fill="#E1D5DC" d="M39.6,16.4C39.2,24.5,35.4,31,30.7,31c-2.4,0-4.5-1.6-6.1-4.3c0.4,2.8,1,5,1.4,5.9
						c0.1,0.2,0.2,0.3,0.4,0.3c1.1,0,5.5,0,5.5,0l6.1-0.1c0.2,0,0.3-0.1,0.4-0.3C39,30.7,40.9,24.3,39.6,16.4z"/>
				</g>
			</g>
			<g>
				<g>
					<path fill="#BE202E" d="M35.3,5c-0.9,0.4-2,0.5-3,0.5c-1.1,0-2.1-0.2-3-0.5c0.3-0.4,0.5-0.9,0.8-1.3C30.6,2.9,31.3,2,32,1.1
						c0.2-0.2,0.4-0.2,0.6,0c0.7,0.9,1.3,1.7,1.9,2.6C34.8,4.2,35,4.6,35.3,5z"/>
				</g>
			</g>
			<g>
				<g>
					<path fill="#BE202E" d="M32.7,27.5l0,7.7l0,1.6c0,0.2-0.1,0.3-0.3,0.3l-1.1,0c-0.1,0-0.3-0.2-0.3-0.3v-0.4l0-8.8
						c0-0.2,0.1-0.3,0.3-0.3l1.1,0C32.6,27.2,32.7,27.4,32.7,27.5z"/>
				</g>
			</g>
			<g>
				<g>
					<g>
						<path fill="#73615B" d="M35.4,11.2c0,1.8-1.4,3.2-3.2,3.3c-1.8,0-3.2-1.4-3.2-3.2s1.4-3.2,3.2-3.3C34,7.9,35.4,9.4,35.4,11.2z
							"/>
					</g>
				</g>
				<g>
					<g>
						<path fill="#80C0E9" d="M34.4,11.2c0,1.2-1,2.2-2.2,2.2s-2.2-1-2.2-2.2C30,10,31,9,32.2,9C33.5,8.9,34.4,9.9,34.4,11.2z"/>
					</g>
				</g>
			</g>
		</g>
		<g>
			<g>
				<path fill="#DBE9F2" d="M33,46.4c3.6,0,6.5,2.9,6.5,6.6c0,0.4,0,0.7-0.1,1.1c0.5-1,0.9-2.1,0.9-3.3c0-3.6-2.9-6.6-6.5-6.6
					c-3.2,0-5.9,2.4-6.4,5.5C28.5,47.7,30.6,46.4,33,46.4z"/>
			</g>
		</g>
		<g>
			<g>
				<path fill="#DBE9F2" d="M48.6,52.8c2.5,0,4.5,2,4.5,4.5c0,0.3,0,0.5-0.1,0.7c0.4-0.7,0.6-1.4,0.6-2.2c0-2.5-2-4.5-4.5-4.5
					c-2.2,0-4,1.6-4.4,3.7C45.5,53.7,47,52.8,48.6,52.8z"/>
			</g>
		</g>
		<g>
			<g>
				<path fill="#DBE9F2" d="M12.9,53c1.9-1.3,4.5-0.8,5.7,1.1c0.1,0.2,0.2,0.4,0.3,0.6c-0.1-0.7-0.3-1.4-0.7-2
					c-1.3-1.9-3.8-2.4-5.7-1.1c-1.7,1.1-2.3,3.3-1.5,5.2C11,55.3,11.6,53.8,12.9,53z"/>
			</g>
		</g>
	</g>
	<g>
		<g>
			<g>
				<g>
					<line fill="none" x1="72.9" y1="64.7" x2="70.4" y2="64.7"/>
				</g>
			</g>
		</g>
	</g>
</g>
<g>
	<g>
		<path fill="#F2C693" d="M28.6,20.6c0-0.3,0-0.5,0-0.8c0,0,0,0,0,0c-0.2,0.1-0.4,0.1-0.5,0.1c0,0-0.1,0-0.1,0c0,0-0.1,0,0-0.1
			c0-0.1,0.1-0.1,0.1-0.2c0.1-0.1,0.2-0.2,0.3-0.3c0.1-0.1,0.2-0.1,0.3-0.2c0,0,0,0,0-0.1c0.1-0.6,0.3-1.3,0.5-1.8
			c0.1-0.2,0.3-0.5,0.4-0.7c0.1-0.1,0.2-0.2,0.3-0.2c0.3-0.2,0.5-0.2,0.8,0c0.2,0.1,0.3,0.2,0.4,0.4c0.2,0.3,0.4,0.6,0.5,1
			c0.1,0.3,0.2,0.5,0.3,0.8c0,0,0,0,0.1,0c0.4-0.1,0.8-0.4,1.1-0.7c0.1-0.1,0.2-0.2,0.3-0.3c0,0,0.1-0.1,0.1-0.1c0,0,0.1,0,0.1,0
			c0,0.1,0,0.1,0,0.1c-0.1,0.2-0.1,0.3-0.2,0.5c-0.3,0.4-0.7,0.7-1.1,0.9c0,0-0.1,0,0,0.1c0.1,0.5,0.1,1,0.1,1.6c0,0.2,0,0.3,0,0.5
			c0,0,0,0,0,0.1c0,0.1,0,0.1-0.1,0c0,0,0-0.1-0.1-0.1c-0.1-0.2-0.1-0.3-0.2-0.5c-0.1-0.5-0.3-0.9-0.4-1.4c0,0,0-0.1-0.1,0
			c-0.2,0-0.5,0-0.7,0.1c-0.4,0-0.8,0.1-1.2,0.1c-0.1,0-0.2,0-0.3,0.1c0,0-0.1,0-0.1,0.1c-0.1,0.4-0.2,0.8-0.3,1.2
			c0,0.1-0.1,0.3-0.1,0.4c0,0,0,0.1-0.1,0.1c0,0,0,0,0,0c0,0,0,0,0,0c0-0.1,0-0.1,0-0.2C28.6,20.9,28.6,20.7,28.6,20.6z M29.3,19
			C29.4,19,29.4,19,29.3,19c0.5-0.1,0.9-0.2,1.3-0.2c0.2,0,0.3,0,0.5,0c0.1,0,0.1,0,0.1-0.1c-0.1-0.3-0.2-0.7-0.4-0.9
			c-0.1-0.1-0.2-0.3-0.3-0.4c-0.2-0.2-0.3-0.2-0.5,0c-0.1,0.1-0.1,0.2-0.2,0.3c-0.2,0.3-0.3,0.5-0.4,0.8
			C29.5,18.7,29.4,18.8,29.3,19z"/>
		<path fill="#F2C693" d="M35.8,19.5c0-0.4,0-0.8,0.1-1.2c0-0.2,0.1-0.4,0.1-0.5c0,0,0,0,0,0c0,0,0,0,0-0.1c0,0,0-0.1,0-0.1
			c0-0.1,0-0.1,0-0.1c0.1,0,0.2,0,0.3,0c0.1,0,0.1,0,0,0.1c0,0,0,0,0,0l0,0c0,0,0,0.1,0,0.1c0,0,0,0,0,0.1s0,0,0,0
			c0.1,0.2,0.1,0.5,0.1,0.7c0.1,0.5,0.1,0.9,0,1.4c0,0.4-0.1,0.8-0.1,1.2c0,0.1-0.1,0.2-0.1,0.3c0,0,0,0.1-0.1,0.1
			c-0.1,0.1-0.1,0.1-0.1,0c0,0,0-0.1-0.1-0.1C36,21.1,36,21,35.9,20.8C35.8,20.4,35.8,19.9,35.8,19.5z"/>
		<path fill="#F2C693" d="M36.2,17.5c-0.1,0-0.1,0-0.1,0c0,0-0.1,0-0.1-0.1c0-0.2-0.1-0.3-0.2-0.5c-0.1-0.2,0-0.5,0.3-0.6
			c0.2,0,0.4,0.1,0.5,0.3c0,0.1,0,0.2,0,0.3c-0.1,0.1-0.1,0.2-0.1,0.4c0,0,0,0.1,0,0.1c0,0.1,0,0.1-0.1,0.1
			C36.3,17.5,36.2,17.5,36.2,17.5z"/>
		<path fill="#F2C693" d="M34.5,20.8c0,0.2-0.2,0.4-0.4,0.4c-0.1,0-0.2-0.1-0.3-0.1c-0.1-0.2-0.1-0.4,0-0.5c0.1-0.1,0.2-0.2,0.4-0.1
			C34.4,20.4,34.5,20.5,34.5,20.8C34.5,20.7,34.5,20.7,34.5,20.8z"/>
		<path fill="#F2C693" d="M33.5,18C33.5,18,33.5,17.9,33.5,18c0-0.2,0.1-0.3,0.1-0.3c0,0,0-0.1,0-0.1c0,0,0-0.1-0.1,0
			c0,0-0.1,0.1-0.1,0.1c-0.1,0.1-0.1,0.1-0.2,0.2c0,0,0,0.1-0.1,0c0,0,0,0,0-0.1c0.1-0.2,0.2-0.3,0.3-0.4c0.1-0.1,0.1-0.2,0.2-0.2
			c0.1-0.1,0.1-0.1,0.1-0.2c0,0.1,0,0.2,0,0.4c0,0.2-0.1,0.4-0.1,0.5C33.6,17.9,33.5,17.9,33.5,18z"/>
	</g>
	<path fill="#F2C693" d="M31,22c0,0,0-0.1,0-0.1c0,0,0,0,0,0c0,0,0,0,0,0C31.1,22,31.1,22,31,22C31.1,22.1,31.1,22.1,31,22
		c0.1,0.1,0.1,0.1,0.1,0.1C31.1,22.1,31,22.1,31,22C31,22.1,31,22.1,31,22c-0.1,0.1-0.1,0.1-0.2,0.1c-0.1-0.1-0.1-0.1,0-0.2
		c0-0.1,0-0.1,0-0.1c0,0,0-0.1,0-0.1c0,0,0.1,0,0.1,0c0,0,0.1,0.1,0.1,0.1c0,0,0,0.1-0.1,0.1c0,0,0,0,0,0.1C31,21.9,31,22,31,22
		C31,22,31,22,31,22z M30.9,21.9c0,0-0.1,0.1,0,0.1c0,0,0,0.1,0.1,0.1c0,0,0.1,0,0.1,0c0,0,0,0,0,0C30.9,22,30.9,22,30.9,21.9z
		 M30.9,21.8C30.9,21.8,30.9,21.8,30.9,21.8C30.9,21.9,30.9,21.9,30.9,21.8C30.9,21.8,31,21.8,30.9,21.8
		C30.9,21.7,30.9,21.7,30.9,21.8C30.9,21.7,30.9,21.8,30.9,21.8z"/>
	<path fill="#F2C693" d="M28.7,22.1C28.7,22.2,28.7,22.2,28.7,22.1C28.7,22.1,28.7,22.1,28.7,22.1C28.6,22,28.6,22,28.6,22
		c0,0,0,0,0,0c0,0,0,0.1,0,0.1c0,0,0,0,0,0c0,0,0,0,0,0c0-0.1,0.1-0.3,0.1-0.4c0,0,0,0,0,0c0,0,0,0,0,0C28.7,21.9,28.7,22,28.7,22.1
		C28.7,22.1,28.7,22.1,28.7,22.1z M28.6,22C28.6,22,28.6,22,28.6,22c0.1-0.1,0.1-0.2,0-0.2C28.6,21.8,28.6,21.9,28.6,22z"/>
	<path fill="#F2C693" d="M32.2,21.8c0,0,0.1-0.1,0.1,0c0.1,0,0.1,0.1,0.1,0.1c0,0.1,0,0.2,0,0.2c0,0,0,0,0,0s0,0,0,0
		c0-0.1,0-0.2,0-0.2C32.3,21.9,32.3,21.8,32.2,21.8C32.3,21.9,32.2,21.9,32.2,21.8c0,0.2,0,0.2,0,0.3c0,0,0,0,0,0c0,0,0,0,0,0
		C32.2,22,32.2,21.9,32.2,21.8C32.2,21.8,32.2,21.8,32.2,21.8C32.2,21.8,32.2,21.8,32.2,21.8z"/>
	<path fill="#F2C693" d="M32.8,21.8c0-0.1,0.1-0.1,0.1-0.1c0.1,0,0.1,0.1,0.1,0.1c0,0.1,0,0.2,0,0.2c0,0,0,0,0,0c0,0,0,0,0,0
		c0-0.1,0-0.2,0-0.2C32.9,21.9,32.9,21.8,32.8,21.8C32.9,21.8,32.8,21.8,32.8,21.8C32.8,21.9,32.8,21.9,32.8,21.8c0,0.1,0,0.2,0,0.3
		c0,0,0,0,0,0c0,0,0,0,0,0C32.7,22,32.7,21.9,32.8,21.8C32.7,21.8,32.7,21.8,32.8,21.8C32.8,21.8,32.8,21.8,32.8,21.8z"/>
	<path fill="#F2C693" d="M36.3,21.8c0-0.1,0.1-0.1,0.1-0.1c0.1,0,0.1,0.1,0.1,0.1c0,0.1,0,0.2,0,0.2c0,0,0,0,0,0s0,0,0,0
		c0-0.1,0-0.2,0-0.2C36.4,21.9,36.4,21.9,36.3,21.8C36.3,21.8,36.3,21.8,36.3,21.8C36.3,21.9,36.3,21.9,36.3,21.8c0,0.1,0,0.2,0,0.3
		c0,0,0,0,0,0c0,0,0,0,0,0C36.2,22,36.2,21.9,36.3,21.8C36.2,21.8,36.2,21.8,36.3,21.8C36.3,21.8,36.3,21.8,36.3,21.8z"/>
	<path fill="#F2C693" d="M34.5,22.1c0,0-0.1,0.1-0.1,0c0,0-0.1-0.1,0-0.1c0-0.1,0.1-0.1,0.1-0.1c0,0,0,0,0,0c0,0,0-0.1,0-0.1
		c0,0,0,0-0.1,0c0,0,0,0,0,0c0,0,0,0,0,0s0,0,0.1,0c0.1,0,0.1,0,0.1,0.1C34.5,22,34.5,22,34.5,22.1C34.5,22.1,34.5,22.1,34.5,22.1
		C34.5,22.1,34.5,22.1,34.5,22.1z M34.5,22C34.5,22,34.5,22,34.5,22C34.5,22,34.4,22,34.5,22C34.4,22,34.3,22,34.5,22
		C34.4,22.1,34.4,22.1,34.5,22C34.4,22.1,34.4,22.1,34.5,22C34.5,22.1,34.5,22,34.5,22z"/>
	<path fill="#F2C693" d="M33.5,22c0,0.1,0,0.1,0,0.1c-0.1,0.1-0.1,0.1-0.2,0c0-0.1-0.1-0.2,0-0.3c0-0.1,0.1-0.1,0.2,0
		C33.5,21.9,33.5,21.9,33.5,22z M33.4,22c0,0,0-0.1,0-0.1c0,0-0.1,0-0.1,0c0,0,0,0,0,0.1c0,0.1,0,0.1,0,0.2c0,0,0,0,0,0c0,0,0,0,0,0
		C33.4,22.1,33.4,22,33.4,22z"/>
	<path fill="#F2C693" d="M35.9,22c0,0,0,0.1,0,0.1c0,0-0.1,0.1-0.1,0.1c-0.1,0-0.1,0-0.1-0.1c0-0.1,0-0.1,0-0.2c0,0,0.1-0.1,0.1-0.1
		c0,0,0.1,0,0.1,0.1C35.9,21.9,35.9,21.9,35.9,22z M35.8,22c0,0,0-0.1,0-0.1c0,0-0.1,0-0.1,0c0,0,0,0,0,0.1c0,0.1,0,0.1,0,0.2
		c0,0,0,0,0,0c0,0,0,0,0,0C35.8,22.1,35.8,22,35.8,22z"/>
	<path fill="#F2C693" d="M34,21.8c0,0.1-0.1,0.2-0.1,0.3c0,0,0,0,0,0c0,0,0,0,0,0c0-0.1-0.1-0.2-0.1-0.3c0.1,0,0.1,0,0.1,0
		c0,0.1,0,0.2,0.1,0.2C33.9,22,33.9,21.9,34,21.8C34,21.8,34,21.8,34,21.8z"/>
	<path fill="#F2C693" d="M29.6,21.7C29.6,21.7,29.6,21.7,29.6,21.7C29.6,21.8,29.6,21.8,29.6,21.7c0.1,0.1,0.1,0.1,0.1,0.1
		c0,0,0,0,0,0c0,0,0,0,0,0s0,0,0,0c0,0.1,0,0.1,0,0.2c0,0,0,0,0,0c0,0,0,0,0,0c0,0,0,0,0,0c-0.1,0-0.1,0-0.1-0.1s0-0.1,0-0.2
		c0,0,0,0,0,0c0,0,0,0,0,0C29.5,21.8,29.5,21.8,29.6,21.7C29.5,21.8,29.5,21.8,29.6,21.7C29.5,21.7,29.5,21.7,29.6,21.7z"/>
	<path fill="#F2C693" d="M34.9,21.7C34.9,21.7,34.9,21.7,34.9,21.7C34.9,21.8,34.9,21.8,34.9,21.7c0.1,0.1,0.1,0.1,0.1,0.1
		c0,0,0,0,0,0c-0.1,0-0.1,0-0.1,0.1c0,0.1,0,0.1,0,0.2c0,0,0,0,0,0c0,0,0,0,0,0s0,0,0,0c-0.1,0-0.1,0-0.1-0.1s0-0.1,0-0.2
		c0,0,0,0,0,0c0,0,0,0,0,0c0,0,0,0,0,0S34.9,21.8,34.9,21.7C34.8,21.7,34.8,21.7,34.9,21.7z"/>
	<path fill="#F2C693" d="M31.8,21.9c0,0.1,0,0.1,0,0.2c0,0,0,0,0,0c0,0,0,0,0,0c0-0.1,0-0.3,0-0.4c0,0,0,0,0,0c0,0,0,0,0,0
		C31.8,21.8,31.8,21.8,31.8,21.9z"/>
	<path fill="#F2C693" d="M30,22.2C30,22.2,30,22.2,30,22.2C29.9,22.1,29.9,22.1,30,22.2C29.9,22.1,29.9,22.1,30,22.2
		C30,22.1,30,22.1,30,22.2C30,22.1,30,22.1,30,22.2C30,22.1,30,22,30,22c0,0-0.1,0-0.1-0.1c-0.1-0.1,0-0.1,0-0.1c0,0,0.1-0.1,0.1,0
		c0,0,0,0,0,0c0,0,0,0,0,0c0,0-0.1,0-0.1,0c0,0,0,0.1,0,0.1c0,0,0.1,0,0.1,0.1C30.1,22.1,30.1,22.2,30,22.2z"/>
	<path fill="#F2C693" d="M29.1,21.9C29.1,21.8,29.1,21.8,29.1,21.9C29.2,21.8,29.2,21.8,29.1,21.9C29.2,21.8,29.2,21.9,29.1,21.9
		C29.1,21.9,29.1,21.9,29.1,21.9c0,0.2,0,0.2,0,0.3c0,0,0,0,0,0c0,0,0,0,0,0C29,22,29,21.9,29.1,21.9C29,21.8,29,21.8,29.1,21.9
		C29.1,21.8,29.1,21.8,29.1,21.9C29.1,21.8,29.1,21.8,29.1,21.9z"/>
	<path fill="#F2C693" d="M35.3,22c0,0.1,0,0.1,0,0.1c0,0,0,0,0,0s0,0,0,0c0-0.1,0-0.2,0-0.3c0,0,0,0,0,0c0,0,0,0,0,0
		C35.3,21.9,35.3,21.9,35.3,22z"/>
	<path fill="#F2C693" d="M35.3,21.7C35.3,21.7,35.3,21.8,35.3,21.7C35.3,21.8,35.3,21.7,35.3,21.7C35.3,21.7,35.3,21.7,35.3,21.7
		C35.3,21.7,35.3,21.7,35.3,21.7z"/>
</g>
</svg>
