<?xml version="1.0" encoding="utf-8"?>
<!-- Generator: Adobe Illustrator 18.0.0, SVG Export Plug-In . SVG Version: 6.00 Build 0)  -->
<!DOCTYPE svg PUBLIC "-//W3C//DTD SVG 1.1 Tiny//EN" "http://www.w3.org/Graphics/SVG/1.1/DTD/svg11-tiny.dtd">
<svg version="1.1" baseProfile="tiny" id="Layer_1" xmlns="http://www.w3.org/2000/svg" xmlns:xlink="http://www.w3.org/1999/xlink"
	 x="0px" y="0px" viewBox="0 0 64 64" xml:space="preserve">
<g>
	
		<image width="2308" height="2308" xlink:href="../images/585ACAF7.png"  transform="matrix(2.774167e-002 0 0 2.774167e-002 2.436442e-002 0)">
	</image>
	<g>
		<circle fill="#00A2FF" cx="31.9" cy="31.9" r="25.4"/>
	</g>
</g>
<g>
	<path fill="#CDD4D5" d="M38.9,24.3H25.1c-0.3,0-0.5,0.2-0.5,0.5v9.9c0,0.3,0.2,0.5,0.5,0.5h13.8c0.3,0,0.5-0.2,0.5-0.5v-9.9
		C39.4,24.5,39.2,24.3,38.9,24.3z"/>
	<path fill="#1C325F" d="M32.4,15.7c-0.1-0.1-0.3-0.2-0.4-0.2c-0.2,0-0.3,0.1-0.4,0.2l-6.9,8.9c-0.1,0.2-0.1,0.4-0.1,0.5h14.8
		c0.1-0.2,0.1-0.4-0.1-0.5L32.4,15.7z"/>
	<path fill="#E8C21F" d="M32,40.6c-1.5,0-2.7,1.2-2.7,2.7c0,1.3,1.9,3.9,2.3,4.5c0.1,0.1,0.3,0.2,0.4,0.2c0.2,0,0.3-0.1,0.4-0.2
		c0.4-0.5,2.3-3.1,2.3-4.5C34.7,41.8,33.5,40.6,32,40.6z"/>
	<path fill="#FDD800" d="M32.8,43.3c0-0.5-0.4-0.8-0.8-0.8c-0.5,0-0.8,0.4-0.8,0.8c0,0.3,0.4,0.9,0.8,1.7
		C32.5,44.3,32.8,43.6,32.8,43.3z"/>
	<path fill="#FDD800" d="M29.3,43.3c0,1.3,1.9,3.9,2.3,4.5c0.1,0.1,0.3,0.2,0.4,0.2v-7.4C30.5,40.6,29.3,41.8,29.3,43.3z"/>
	<g>
		<path fill="#E8C21F" d="M31.2,43.3c0,0.3,0.4,0.9,0.8,1.7v-2.5C31.5,42.5,31.2,42.9,31.2,43.3z"/>
		<path fill="#1C325F" d="M25.3,34.3c-0.2-0.1-0.4,0-0.6,0.1l-5.3,4.7c-0.2,0.1-0.2,0.4-0.1,0.6c0.1,0.2,0.3,0.3,0.5,0.3h5.3
			c0.3,0,0.5-0.2,0.5-0.5v-4.7C25.6,34.6,25.5,34.4,25.3,34.3z"/>
	</g>
	<path fill="#14284E" d="M44.5,39.1l-5.3-4.7c-0.2-0.1-0.4-0.2-0.6-0.1c-0.2,0.1-0.3,0.3-0.3,0.5v4.7c0,0.3,0.2,0.5,0.5,0.5h5.3
		c0.2,0,0.4-0.1,0.5-0.3C44.7,39.5,44.7,39.2,44.5,39.1z"/>
	<path fill="#1C325F" d="M39.4,34.2H24.6v5.2c0,0.3,0.2,0.5,0.5,0.5h13.8c0.3,0,0.5-0.2,0.5-0.5V34.2L39.4,34.2z"/>
	<path fill="#9BAAAB" d="M24.9,24.5c-0.4-0.2-0.3,0.7-0.3,1v8.3c0,0.5,0,0.4,0,0.4H32V25L24.9,24.5z"/>
	<path fill="#14284E" d="M31.6,15.7l-6.9,8.9c-0.1,0.2-0.1,0.4-0.1,0.5H32v-9.6C31.8,15.5,31.7,15.5,31.6,15.7z"/>
	<path fill="#14284E" d="M24.6,34.2v5.2c0,0.3,0.2,0.5,0.5,0.5H32v-5.7H24.6L24.6,34.2z"/>
	<g>
		<path fill="#FFFFFF" d="M37.3,32.8c-0.3,0-0.5-0.2-0.5-0.5v-5c0-0.3,0.2-0.5,0.5-0.5c0.3,0,0.5,0.2,0.5,0.5v5
			C37.8,32.6,37.5,32.8,37.3,32.8z"/>
	</g>
</g>
<path fill="#BE1E2D" d="M32,26.2c-2,0-3.6,1.6-3.6,3.6s1.6,3.6,3.6,3.6s3.6-1.6,3.6-3.6S34,26.2,32,26.2z"/>
<path fill="#9B1C2B" d="M28.4,29.8c0,2,1.6,3.6,3.6,3.6v-7.1C30,26.2,28.4,27.8,28.4,29.8z"/>
<path fill="#FFFFFF" d="M30.9,30.6c-0.1,0-0.3,0-0.4-0.2c-0.2-0.2-0.2-0.5,0-0.7l1.4-1.4c0.2-0.2,0.5-0.2,0.7,0
	c0.2,0.2,0.2,0.5,0,0.7l-1.4,1.4C31.2,30.5,31,30.6,30.9,30.6z"/>
<path fill="#FFFFFF" d="M32.3,31.4c-0.1,0-0.3,0-0.4-0.2c-0.2-0.2-0.2-0.5,0-0.7l0.8-0.8c0.2-0.2,0.5-0.2,0.7,0
	c0.2,0.2,0.2,0.5,0,0.7l-0.8,0.8C32.5,31.4,32.4,31.4,32.3,31.4z"/>
</svg>
