<?xml version="1.0" encoding="utf-8"?>
<!-- Generator: Adobe Illustrator 18.0.0, SVG Export Plug-In . SVG Version: 6.00 Build 0)  -->
<!DOCTYPE svg PUBLIC "-//W3C//DTD SVG 1.1 Tiny//EN" "http://www.w3.org/Graphics/SVG/1.1/DTD/svg11-tiny.dtd">
<svg version="1.1" baseProfile="tiny" id="Layer_1" xmlns="http://www.w3.org/2000/svg" xmlns:xlink="http://www.w3.org/1999/xlink"
	 x="0px" y="0px" viewBox="0 0 64 64" xml:space="preserve">
<g>
	<g>
		<g>
			<path fill="#BE1E2D" d="M39,40.4c-0.7,0-1.2,0.5-1.2,1.2s0.5,1.2,1.2,1.2s1.2-0.5,1.2-1.2C40.1,41,39.6,40.4,39,40.4z"/>
		</g>
	</g>
	<g>
		<g>
			<path fill="#BE1E2D" d="M24.5,40.4c-0.7,0-1.2,0.5-1.2,1.2s0.5,1.2,1.2,1.2s1.2-0.5,1.2-1.2C25.7,41,25.2,40.4,24.5,40.4z"/>
		</g>
	</g>
	<g>
		<g>
			<path fill="#BE1E2D" d="M61.7,27.1L56.5,26c-0.6-2.6-1.6-5.1-3.1-7.4l2.4-3.9c0.3-0.4,0.2-1.1-0.1-1.5L50.6,8
				c-0.4-0.4-1-0.4-1.5-0.1l-3.9,2.4c-2.3-1.4-4.8-2.5-7.4-3.1L36.6,2c-0.1-0.5-0.6-0.9-1.2-0.9h-7.2c-0.6,0-1,0.4-1.2,1l-1.1,5.2
				c-2.6,0.6-5.1,1.6-7.4,3.1L14.6,8c-0.4-0.3-1.1-0.2-1.5,0.1L8,13.2c-0.4,0.4-0.4,1-0.1,1.5l2.4,3.9C8.8,21,7.8,23.4,7.2,26
				L2,27.2c-0.5,0.1-1,0.6-1,1.2v7.2c0,0.6,0.4,1,1,1.2l5.2,1.1c0.6,2.6,1.6,5.1,3.1,7.3l-2.4,3.9c-0.3,0.4-0.2,1,0.1,1.5l5.1,5.1
				c0.4,0.4,1,0.4,1.5,0.1l4.1-2.5c2.2,1.3,4.6,2.4,7.1,3l1.2,5.4c0.1,0.5,0.6,1,1.2,1h7.2c0.6,0,1-0.4,1.2-1l1.2-5.4
				c2.5-0.6,4.9-1.6,7.1-3l4.1,2.5c0.4,0.3,1,0.2,1.5-0.1l5.1-5.1c0.4-0.4,0.4-1,0.1-1.5l-2.5-4c1.4-2.2,2.4-4.7,3.1-7.3l5.2-1.1
				c0.5-0.1,1-0.6,1-1.2v-7.2C62.6,27.8,62.2,27.2,61.7,27.1z M60.2,34.5l-5.1,1.1c-0.4,0.1-0.8,0.4-0.9,0.9
				c-0.6,2.8-1.7,5.4-3.3,7.8c-0.2,0.4-0.3,0.9,0,1.3l2.3,3.9l-3.8,3.8l-3.9-2.4c-0.4-0.2-0.9-0.2-1.3,0c-2.4,1.6-5,2.6-7.7,3.2
				c-0.4,0.1-0.8,0.4-1,0.9l-1.1,5.2h-5.3L28.1,55c-0.1-0.4-0.4-0.8-1-0.9c-2.8-0.6-5.4-1.6-7.7-3.2c-0.4-0.2-0.9-0.2-1.3,0
				l-3.9,2.5l-3.8-3.8l2.3-3.9c0.2-0.4,0.2-0.9,0-1.3c-1.6-2.4-2.7-5-3.3-7.8c-0.1-0.4-0.4-0.8-0.9-0.9l-5.1-1.1v-5.3l5-1.1
				c0.4-0.1,0.8-0.4,0.9-1c0.6-2.8,1.7-5.5,3.3-8c0.2-0.4,0.3-0.9,0-1.3l-2.3-3.8l3.9-3.8l3.8,2.3c0.4,0.2,0.9,0.2,1.3,0
				c2.5-1.6,5.1-2.7,8-3.3c0.4-0.1,0.8-0.4,1-0.9l1.1-5h5.3l1.1,5c0.1,0.4,0.4,0.8,1,0.9c2.8,0.6,5.5,1.7,8,3.3
				c0.4,0.2,0.9,0.3,1.3,0l3.8-2.3l3.8,3.8L51.2,18c-0.2,0.4-0.2,0.9,0,1.3c1.6,2.5,2.7,5.1,3.3,8c0.1,0.4,0.4,0.8,0.9,1l5,1.1
				L60.2,34.5L60.2,34.5z"/>
		</g>
	</g>
	<g>
		<g>
			<path fill="#BE1E2D" d="M47.4,23L47.4,23L47.4,23c-1.6-2.8-3.9-5-6.6-6.6c-2.8-1.6-5.9-2.4-9-2.4s-6.3,0.8-9,2.4
				c-2.8,1.6-5,3.9-6.6,6.6l0,0l0,0l0,0c-1.6,2.8-2.4,5.9-2.4,9c0,0.1,0,0.1,0,0.3s0,0.2,0,0.4c0,0.1,0,0.1,0,0.3l0,0
				c0,0.1,0,0.2,0,0.3c0,0.1,0,0.2,0,0.4c0,0.1,0,0.1,0,0.3c0,0.1,0,0.2,0,0.3c0,0.1,0,0.1,0,0.2l0,0l0,0l0,0c0,0.2,0.1,0.4,0.1,0.6
				c0,0.1,0,0.1,0.1,0.2c0,0.1,0,0.1,0,0.1c0,0.1,0,0.1,0.1,0.2l0,0c0,0.1,0.1,0.2,0.1,0.3l0,0l0,0l0,0V36c0,0.1,0,0.1,0.1,0.1l0,0
				l0,0l0,0c0.1,0.2,0.1,0.4,0.1,0.6c0,0.1,0.1,0.1,0.1,0.2s0.1,0.1,0.1,0.3c0,0.1,0.1,0.1,0.1,0.2l0,0l0,0l0,0
				c0,0.1,0.1,0.1,0.1,0.2v0.1v0.1l0,0l0,0c0,0.1,0,0.1,0.1,0.1c0,0.1,0.1,0.1,0.1,0.2l0,0l0,0l0,0c0.1,0.1,0.1,0.4,0.2,0.5
				c0.1,0.1,0.1,0.2,0.1,0.4c0,0.1,0.1,0.1,0.1,0.1l0,0c0,0.1,0.1,0.1,0.1,0.2l0,0l0,0l0,0v0.1c0,0.1,0.1,0.1,0.1,0.1l0,0l0,0l0,0
				l0,0l0,0c0.1,0.1,0.1,0.1,0.1,0.2l0,0l0,0V40c0,0.1,0.1,0.1,0.1,0.2l0,0l0,0l0,0c0,0.1,0.1,0.1,0.1,0.1c0,0.1,0.1,0.1,0.1,0.2
				c0,0.1,0.1,0.1,0.1,0.1l0,0l0,0c3.2,5.6,9.2,9,15.6,9s12.4-3.4,15.6-9l0,0l0,0c0-0.1,0.1-0.1,0.1-0.1c0.1-0.1,0.1-0.1,0.1-0.2
				s0.1-0.1,0.1-0.1l0,0l0,0c0.1-0.1,0.1-0.1,0.1-0.2l0,0l0,0l0.1-0.1c0-0.1,0.1-0.1,0.1-0.1l0,0l0,0c0-0.1,0.1-0.1,0.1-0.1v-0.1
				l0,0l0,0v-0.1c0-0.1,0.1-0.1,0.1-0.2l0,0c0-0.1,0.1-0.1,0.1-0.1c0.1-0.1,0.1-0.2,0.1-0.4l0,0l0,0l0,0c0.1-0.2,0.1-0.4,0.2-0.6
				c0-0.1,0.1-0.1,0.1-0.3c0-0.1,0-0.1,0.1-0.1l0,0l0,0v-0.1v-0.1c0-0.1,0.1-0.1,0.1-0.2l0,0l0,0v-0.1v-0.1v-0.1
				c0-0.1,0.1-0.1,0.1-0.3c0-0.1,0.1-0.1,0.1-0.2l0,0l0,0c0.1-0.2,0.1-0.4,0.1-0.6l0,0l0,0l0,0c0-0.1,0-0.1,0.1-0.1v-0.1l0,0l0,0
				l0,0c0-0.1,0.1-0.2,0.1-0.3c0-0.1,0-0.1,0.1-0.2c0-0.1,0-0.1,0-0.1c0-0.1,0-0.1,0-0.1v-0.1c0-0.1,0.1-0.4,0.1-0.6
				c0-0.1,0-0.1,0-0.3c0-0.1,0-0.2,0-0.3l0,0l0,0c0-0.1,0-0.1,0-0.3l0,0l0,0l0,0c0-0.1,0-0.2,0-0.3c0-0.1,0-0.1,0-0.2v-0.1l0,0l0,0
				c0-0.1,0-0.1,0-0.3s0-0.2,0-0.4c0-0.1,0-0.1,0-0.3C49.7,28.9,48.9,25.7,47.4,23z M47.3,30.8h-4.8c-0.1-1.1-0.4-2.2-0.8-3.1
				l4.2-2.4C46.7,27,47.1,28.9,47.3,30.8z M44.6,23.1l-4.2,2.4c-0.7-0.9-1.4-1.6-2.3-2.3l2.4-4.2C42.2,20.2,43.6,21.6,44.6,23.1z
				 M32.9,16.4c1.9,0.1,3.8,0.7,5.6,1.5l-2.4,4.2c-1-0.4-2.1-0.7-3.1-0.8L32.9,16.4L32.9,16.4z M30.5,16.4v4.8
				c-1.1,0.1-2.2,0.4-3.1,0.8L25,17.9C26.7,17.1,28.6,16.6,30.5,16.4z M22.9,19.1l2.4,4.2c-0.9,0.7-1.6,1.4-2.3,2.3l-4.2-2.4
				C19.9,21.6,21.3,20.2,22.9,19.1z M17.6,25.2l4.2,2.4c-0.4,1-0.7,2.1-0.8,3.1h-4.8C16.3,28.9,16.8,27,17.6,25.2z M17.6,38.7
				L17.6,38.7c-0.1-0.1-0.1-0.1-0.1-0.2l0,0l0,0l0,0l0,0v-0.1c-0.1-0.1-0.1-0.2-0.1-0.4s-0.1-0.3-0.2-0.4c0-0.1-0.1-0.1-0.1-0.2l0,0
				v-0.1l0,0l0,0l0,0c0-0.1-0.1-0.1-0.1-0.1l0,0c0-0.1-0.1-0.1-0.1-0.1v-0.1c0-0.1,0-0.1-0.1-0.1c0-0.1-0.1-0.1-0.1-0.2l0,0l0,0
				c0-0.1-0.1-0.1-0.1-0.2l0,0l0,0c-0.1-0.2-0.1-0.4-0.1-0.5l0,0l0,0c0-0.1,0-0.1,0-0.1l0,0c0-0.1-0.1-0.2-0.1-0.3
				c0-0.1,0-0.1-0.1-0.2l0,0v-0.1c0,0,0,0,0-0.1s0-0.1,0-0.1c0-0.1-0.1-0.4-0.1-0.5c0-0.1,0-0.1,0-0.2l0,0c0-0.1,0-0.1,0-0.3
				c0-0.1,0-0.1,0-0.2s0-0.1,0-0.1h4.8c0.1,1.1,0.4,2.2,0.8,3.1L17.6,38.7L17.6,38.7z M31.7,47.6c-5.1,0-10-2.6-12.9-6.8l5.1-3
				c0.3-0.1,0.4-0.4,0.6-0.7c0.1-0.3,0.1-0.7-0.1-0.9c-0.7-1.3-1.1-2.8-1.1-4.2s0.4-2.9,1.1-4.2c0.7-1.3,1.8-2.3,3.1-3.1
				c1.3-0.7,2.8-1.1,4.2-1.1c1.5,0,2.9,0.4,4.2,1.1c1.3,0.7,2.3,1.8,3.1,3.1c0.5,0.9,0.9,1.9,1,3h-4.9c-0.5-1.4-1.9-2.4-3.4-2.4
				c-2,0-3.6,1.6-3.6,3.6c0,2,1.6,3.6,3.6,3.6c1.6,0,2.9-1,3.4-2.4h4.9c-0.1,1-0.5,2.1-1,3c-0.1,0.3-0.2,0.6-0.1,0.9
				c0.1,0.3,0.3,0.6,0.6,0.7l5.1,3C41.7,45.1,36.9,47.6,31.7,47.6z M32.9,32c0,0.7-0.5,1.2-1.2,1.2c-0.7,0-1.2-0.5-1.2-1.2
				c0-0.7,0.5-1.2,1.2-1.2S32.9,31.3,32.9,32z M47.3,33.3L47.3,33.3c0,0.1,0,0.1,0,0.2l0,0c0,0.1,0,0.1,0,0.2s0,0.1,0,0.2l0,0
				c0,0.1-0.1,0.4-0.1,0.5v0.1c0,0,0,0,0,0.1v0.1l0,0v0.1l0,0c0,0.1,0,0.1-0.1,0.2c0,0.1-0.1,0.2-0.1,0.3l0,0c0,0.1,0,0.1-0.1,0.1
				l0,0c-0.1,0.1-0.1,0.4-0.1,0.6c0,0.1-0.1,0.1-0.1,0.2s-0.1,0.1-0.1,0.2s0,0.1-0.1,0.1v0.1c0,0.1,0,0.1-0.1,0.1l0,0
				c0,0.1,0,0.1-0.1,0.1l0,0l0,0l0,0v0.1l0,0c0,0.1-0.1,0.1-0.1,0.2c-0.1,0.1-0.1,0.3-0.2,0.5c-0.1,0.1-0.1,0.2-0.1,0.3v0.1l0,0l0,0
				l0,0l0,0c0,0.1-0.1,0.1-0.1,0.1l0,0v0.1l-4.2-2.4c0.4-1,0.7-2.1,0.8-3.1h4.8C47.3,33.3,47.3,33.3,47.3,33.3z"/>
		</g>
	</g>
	<g>
		<g>
			<path fill="#BE1E2D" d="M35.3,40.4h-7.2c-0.7,0-1.2,0.5-1.2,1.2s0.5,1.2,1.2,1.2h7.2c0.7,0,1.2-0.5,1.2-1.2S36,40.4,35.3,40.4z"
				/>
		</g>
	</g>
</g>
</svg>
