<?xml version="1.0" encoding="utf-8"?>
<!-- Generator: Adobe Illustrator 18.0.0, SVG Export Plug-In . SVG Version: 6.00 Build 0)  -->
<!DOCTYPE svg PUBLIC "-//W3C//DTD SVG 1.1 Tiny//EN" "http://www.w3.org/Graphics/SVG/1.1/DTD/svg11-tiny.dtd">
<svg version="1.1" baseProfile="tiny" id="Layer_1" xmlns="http://www.w3.org/2000/svg" xmlns:xlink="http://www.w3.org/1999/xlink"
	 x="0px" y="0px" viewBox="0 0 64 64" xml:space="preserve">
<g>
	<path fill="#15ADF9" d="M25.5,14.6C12.1,14.6,1.2,25.6,1.2,39s10.9,24.4,24.4,24.4S49.9,52.4,49.9,39S39,14.6,25.5,14.6z"/>
	<path fill="#009CEA" d="M1.2,39c0,13.4,10.9,24.4,24.4,24.4V14.6C12.1,14.6,1.2,25.6,1.2,39z"/>
	<path fill="#40C1F4" d="M25.5,22c-9.4,0-17,7.7-17,17s7.7,17,17,17c9.4,0,17-7.7,17-17S35,22,25.5,22z"/>
	<g>
		<path fill="#3DB8E8" d="M8.5,39c0,9.4,7.7,17,17,17V22C16.2,22,8.5,29.6,8.5,39z"/>
		<path fill="#1C325F" d="M25.5,28.2c-5.9,0-10.8,4.8-10.8,10.8s4.8,10.8,10.8,10.8S36.3,45,36.3,39S31.5,28.2,25.5,28.2z"/>
	</g>
	<path fill="#15284E" d="M14.8,39c0,5.9,4.8,10.8,10.8,10.8V28.2C19.6,28.2,14.8,33.1,14.8,39z"/>
	<path fill="#BE1E2D" d="M25.5,32.9c-3.4,0-6.1,2.8-6.1,6.1c0,3.4,2.8,6.1,6.1,6.1c3.4,0,6.1-2.8,6.1-6.1
		C31.7,35.6,28.9,32.9,25.5,32.9z"/>
	<path fill="#A8182A" d="M19.4,39c0,3.4,2.8,6.1,6.1,6.1V32.9C22.2,32.9,19.4,35.6,19.4,39z"/>
	<path fill="#15284E" d="M25.9,38.8c-0.3,0-0.5-0.1-0.7-0.3c-0.4-0.4-0.4-1,0-1.4l22.9-22.9c0.4-0.4,1-0.4,1.4,0
		c0.4,0.4,0.4,1,0,1.4L26.6,38.5C26.4,38.7,26.2,38.8,25.9,38.8z"/>
	<path fill="#E6EAEA" d="M49.9,1.7c0-0.4-0.2-0.8-0.6-0.9c-0.4-0.1-0.8-0.1-1,0.2L34.7,14.5c-0.2,0.2-0.3,0.4-0.3,0.7v13.2
		c0,0,0,0,0,0c0,0,0,0,0,0.1c0,0,0,0,0,0.1c0,0,0,0,0,0.1c0,0,0,0,0,0.1s0,0,0,0c0,0,0,0,0,0c0,0,0,0,0,0.1s0,0,0,0.1c0,0,0,0,0,0.1
		c0,0,0,0,0,0.1s0,0,0,0l15.2-15.2L49.9,1.7L49.9,1.7z"/>
	<path fill="#9BAAAB" d="M63,14.4c-0.1-0.4-0.5-0.6-0.9-0.6H49.9L34.7,29c0,0,0,0,0,0c0,0,0,0,0.1,0c0,0,0,0,0.1,0c0,0,0,0,0.1,0
		c0,0,0,0,0.1,0c0,0,0,0,0,0c0,0,0,0,0.1,0l0,0c0,0,0.1,0,0.1,0h0c0,0,0.1,0,0.1,0l0,0l0,0h13.2c0.3,0,0.5-0.1,0.7-0.3l13.5-13.5
		C63,15.2,63.1,14.8,63,14.4z"/>
	<path fill="#15284E" d="M41.3,22.4c0.2,0.2,0.4,0.3,0.7,0.3h13.6l1.9-1.9H42.9L41.3,22.4z"/>
	<path fill="#15284E" d="M42.9,6.3L41,8.2v13.5c0,0.3,0.1,0.5,0.3,0.7l1.7-1.7L42.9,6.3L42.9,6.3z"/>
</g>
</svg>
