<?xml version="1.0" encoding="utf-8"?>
<!-- Generator: Adobe Illustrator 18.0.0, SVG Export Plug-In . SVG Version: 6.00 Build 0)  -->
<!DOCTYPE svg PUBLIC "-//W3C//DTD SVG 1.1 Tiny//EN" "http://www.w3.org/Graphics/SVG/1.1/DTD/svg11-tiny.dtd">
<svg version="1.1" baseProfile="tiny" id="Layer_1" xmlns="http://www.w3.org/2000/svg" xmlns:xlink="http://www.w3.org/1999/xlink"
	 x="0px" y="0px" viewBox="0 0 64 64" xml:space="preserve">
<g>
	
		<image width="2308" height="2313" xlink:href="../images/795D2F0F.png"  transform="matrix(2.771163e-002 0 0 2.771163e-002 3.465828e-002 -7.978638e-002)">
	</image>
	<g>
		<circle fill="#00A2FF" cx="31.9" cy="31.8" r="25.4"/>
	</g>
</g>
<g>
	<path fill="#F1F1F2" d="M44.3,19.5H19.2c-0.2,0-0.4,0.2-0.4,0.4v21.4c0,0.2,0.2,0.4,0.4,0.4h25.1c0.2,0,0.4-0.2,0.4-0.4V20
		C44.8,19.7,44.6,19.5,44.3,19.5z"/>
	<path fill="#E6E7E8" d="M19.2,19.5c-0.2,0-0.4,0.2-0.4,0.4v21.4c0,0.2,0.2,0.4,0.4,0.4h12.3V19.5H19.2z"/>
	<path fill="#BBBDBF" d="M44.3,19.5H19.2c-0.2,0-0.4,0.2-0.4,0.4v2.3h26V20C44.8,19.7,44.6,19.5,44.3,19.5z"/>
	<path fill="#14284E" d="M45.3,39.6h-27c-0.2,0-0.4,0.2-0.4,0.4v2c0,1.2,1,2.2,2.2,2.2h23.5c1.2,0,2.2-1,2.2-2.2v-2
		C45.7,39.8,45.5,39.6,45.3,39.6z"/>
	<path fill="#1C325F" d="M45.3,39.6H31.5v4.6h12c1.2,0,2.2-1,2.2-2.2v-2C45.7,39.8,45.5,39.6,45.3,39.6z"/>
	<path fill="#AA1D2F" d="M34.5,39.6H29v2.3c0,0.2,0.2,0.4,0.4,0.4h4.7c0.2,0,0.4-0.2,0.4-0.4V39.6L34.5,39.6z"/>
	<path fill="#BE1E2D" d="M29,39.6v2.3c0,0.2,0.2,0.4,0.4,0.4h2v-2.7L29,39.6L29,39.6z"/>
	<g>
		<path fill="#FFFFFF" d="M42,42.8h-5.1c-0.2,0-0.4-0.2-0.4-0.4s0.2-0.4,0.4-0.4H42c0.2,0,0.4,0.2,0.4,0.4S42.2,42.8,42,42.8z"/>
		<path fill="#FFFFFF" d="M26.6,42.8h-5.1c-0.2,0-0.4-0.2-0.4-0.4s0.2-0.4,0.4-0.4h5.1c0.2,0,0.4,0.2,0.4,0.4S26.9,42.8,26.6,42.8z"
			/>
	</g>
</g>
<g>
	<path id="WordPress__x28_alt_x29_" fill="#14284E" d="M27.2,28.1c0.9-1.6,2.6-2.7,4.6-2.7c1.3,0,2.5,0.6,3.4,1.3
		c-0.3,0-0.5,0-0.8,0.2c-0.7,0.4-0.9,1.5,0,2c0.5,0.3,0.7,1.2,0.7,1.7c0,0.5-1.3,2.9-1.3,2.9l-1.2-4.2c0,0,0-0.3,0-0.4
		c0-0.1,0-0.2,0.1-0.3c0,0,0.1-0.2,0.2-0.2h0.6v-0.5h-3.1v0.5h0.1c0.1,0,0.2,0.1,0.3,0.2c0.1,0.1,0.3,0.6,0.4,1l0.5,1.5l-1,2.3
		l-1.1-4.5c0,0,0-0.3,0.1-0.4c0,0,0.1-0.1,0.2-0.1h0v-0.5L27.2,28.1L27.2,28.1z M27.8,28.9c0,0-0.3-0.3-0.5-0.3H27
		c-0.3,0.6-0.4,1.4-0.4,2.1c0,2.1,1.3,4,3.2,4.8L27.8,28.9z M36.3,28.1c0.1,0.5,0.1,1-0.1,1.7c-0.5,1.6-1.7,4.6-2.2,5.7
		c1.8-0.8,3.1-2.6,3.1-4.7C37,29.8,36.8,28.9,36.3,28.1z M31.9,32.5l-1.3,3.3c0.4,0.1,0.8,0.2,1.2,0.2c0.4,0,0.9-0.1,1.3-0.2
		L31.9,32.5z"/>
</g>
</svg>
